<svg viewBox="45 30 110 165" xmlns="http://www.w3.org/2000/svg">
  <style>
    .owl-eye {
      animation: blink 3s infinite;
      transform-origin: center;
    }
    @keyframes blink {
      0%, 90%, 100% { opacity: 1; }
      92%, 98% { opacity: 0; }
    }
  </style>
  <!-- Body -->
  <ellipse cx="100" cy="140" rx="35" ry="45" fill="#2C5282" stroke="#1A365D" stroke-width="2"></ellipse>
  
  <!-- Head -->
  <ellipse cx="100" cy="85" rx="50" ry="45" fill="#3182CE" stroke="#1A365D" stroke-width="2"></ellipse>
  
  <!-- Ear tufts -->
  <path d="M 65 55 Q 60 40 70 45 Q 75 35 80 50" fill="#2C5282" stroke="#1A365D" stroke-width="2"></path>
  <path d="M 135 55 Q 140 40 130 45 Q 125 35 120 50" fill="#2C5282" stroke="#1A365D" stroke-width="2"></path>
  
  <!-- Facial disc -->
  <ellipse cx="100" cy="85" rx="40" ry="35" fill="#4299E1" stroke="#1A365D" stroke-width="1"></ellipse>
  
  <!-- Eye areas -->
  <circle cx="85" cy="80" r="15" fill="#F7FAFC" stroke="#1A365D" stroke-width="2"></circle>
  <circle cx="115" cy="80" r="15" fill="#F7FAFC" stroke="#1A365D" stroke-width="2"></circle>
  
  <!-- Eyes (animated blink) -->
  <circle cx="85" cy="80" r="10" fill="#1A365D" class="owl-eye"></circle>
  <circle cx="115" cy="80" r="10" fill="#1A365D" class="owl-eye"></circle>
  
  <!-- Eye highlights -->
  <circle cx="87" cy="77" r="3" fill="#FFF"></circle>
  <circle cx="117" cy="77" r="3" fill="#FFF"></circle>
  <circle cx="83" cy="82" r="1" fill="#FFF"></circle>
  <circle cx="113" cy="82" r="1" fill="#FFF"></circle>
  
  <!-- Beak -->
  <path d="M 100 90 Q 95 100 100 105 Q 105 100 100 90" fill="#ED8936" stroke="#C05621" stroke-width="2"></path>
  
  <!-- Wing details -->
  <ellipse cx="70" cy="130" rx="15" ry="30" fill="#2C5282" stroke="#1A365D" stroke-width="1" transform="rotate(-20 70 130)"></ellipse>
  <ellipse cx="130" cy="130" rx="15" ry="30" fill="#2C5282" stroke="#1A365D" stroke-width="1" transform="rotate(20 130 130)"></ellipse>
  
  <!-- Wing feather details -->
  <path d="M 60 120 Q 65 125 60 130 Q 65 135 60 140" stroke="#1A365D" stroke-width="1" fill="none"></path>
  <path d="M 140 120 Q 135 125 140 130 Q 135 135 140 140" stroke="#1A365D" stroke-width="1" fill="none"></path>
  
  <!-- Chest/belly -->
  <ellipse cx="100" cy="135" rx="25" ry="30" fill="#4299E1" stroke="#1A365D" stroke-width="1"></ellipse>
  
  <!-- Chest pattern -->
  <path d="M 85 125 Q 100 130 115 125" stroke="#1A365D" stroke-width="1" fill="none"></path>
  <path d="M 85 135 Q 100 140 115 135" stroke="#1A365D" stroke-width="1" fill="none"></path>
  <path d="M 85 145 Q 100 150 115 145" stroke="#1A365D" stroke-width="1" fill="none"></path>
  
  <!-- Feet -->
  <ellipse cx="90" cy="180" rx="8" ry="4" fill="#ED8936" stroke="#C05621" stroke-width="2"></ellipse>
  <ellipse cx="110" cy="180" rx="8" ry="4" fill="#ED8936" stroke="#C05621" stroke-width="2"></ellipse>
  
  <!-- Talons -->
  <path d="M 85 182 L 83 187" stroke="#C05621" stroke-width="2" stroke-linecap="round"></path>
  <path d="M 90 182 L 88 187" stroke="#C05621" stroke-width="2" stroke-linecap="round"></path>
  <path d="M 95 182 L 93 187" stroke="#C05621" stroke-width="2" stroke-linecap="round"></path>
  <path d="M 105 182 L 103 187" stroke="#C05621" stroke-width="2" stroke-linecap="round"></path>
  <path d="M 110 182 L 108 187" stroke="#C05621" stroke-width="2" stroke-linecap="round"></path>
  <path d="M 115 182 L 113 187" stroke="#C05621" stroke-width="2" stroke-linecap="round"></path>
  
  <!-- Friendly eyebrows -->
  <path d="M 75 68 Q 82 65 89 68" stroke="#1A365D" stroke-width="2" fill="none" stroke-linecap="round"></path>
  <path d="M 111 68 Q 118 65 125 68" stroke="#1A365D" stroke-width="2" fill="none" stroke-linecap="round"></path>
  
  <!-- Wisdom accent - small graduation cap suggestion -->
  <path d="M 85 58 Q 100 55 115 58" stroke="#ED8936" stroke-width="2" fill="none" stroke-linecap="round"></path>
  
  <!-- Professional tie suggestion -->
  <path d="M 100 110 L 95 120 L 100 130 L 105 120 Z" fill="#ED8936" stroke="#C05621" stroke-width="1"></path>
  <circle cx="100" cy="115" r="2" fill="#C05621"></circle>
</svg>
