<?xml version="1.0" encoding="UTF-8"?>
<svg version="1.1" xmlns="http://www.w3.org/2000/svg" width="1024" height="1024">
<path d="M0 0 C3.27030638 2.37247145 6.29589332 4.09287687 10.06054688 5.52832031 C11.39388021 7.19498698 12.72721354 8.86165365 14.06054688 10.52832031 C16.09263975 12.21721528 18.19907594 13.79009517 20.30664062 15.38378906 C28.94388413 22.10981273 37.1123572 29.47990099 45.16992188 36.88378906 C46.96819422 38.58613683 46.96819422 38.58613683 49.06054688 39.52832031 C49.06054688 40.18832031 49.06054688 40.84832031 49.06054688 41.52832031 C49.98867187 41.89957031 49.98867187 41.89957031 50.93554688 42.27832031 C53.46413314 43.765724 53.77893692 44.9651004 55.06054688 47.52832031 C55.64191406 47.80417969 56.22328125 48.08003906 56.82226562 48.36425781 C63.8303434 52.00894747 69.32575426 59.71646664 74.41601562 65.66503906 C76.0645344 67.53283824 77.78358269 69.28287655 79.56054688 71.02832031 C83.27240326 74.69090427 86.67784878 78.56194098 90.06054688 82.52832031 C90.86234375 83.46417969 91.66414062 84.40003906 92.49023438 85.36425781 C103.61193706 98.39336025 114.39162765 111.66249673 124.54248047 125.46435547 C125.56083403 126.84891015 126.58203157 128.23137724 127.60595703 129.61181641 C145.94672969 154.36129256 162.05517961 180.55151186 176.55615234 207.71191406 C177.55886933 209.58912003 178.5657084 211.46413 179.57666016 213.33691406 C216.39739299 281.60499087 216.39739299 281.60499087 212.06054688 304.52832031 C209.06882389 309.54669435 205.81372302 311.64489799 200.40759945 313.69960535 C192.78337756 315.58732795 184.79609095 315.08440185 176.98937988 315.05403137 C174.92576398 315.06063093 172.86215304 315.06897568 170.79855049 315.07890749 C165.1289906 315.10111848 159.45967281 315.09849223 153.79008338 315.0917951 C147.65125519 315.088886 141.5124961 315.10897798 135.37369728 315.12617016 C124.67944492 315.15290925 113.9852669 315.16495999 103.29098892 315.16677856 C91.94630643 315.16874939 80.60167945 315.17899057 69.25701523 315.19976807 C68.54553365 315.20106421 67.83405206 315.20236036 67.10101044 315.20369578 C64.20820667 315.20899042 61.31540301 315.21434062 58.42259948 315.21976337 C29.43601732 315.27404906 0.44945159 315.30258131 -28.53717353 315.32013765 C-32.49471493 315.32254069 -36.45225631 315.32498039 -40.40979767 315.32745743 C-41.19482581 315.32794802 -41.97985396 315.32843861 -42.78867084 315.32894406 C-60.15290389 315.33997217 -77.51712462 315.35938789 -94.88134819 315.38030887 C-101.96227606 315.38882779 -109.04320412 315.39718622 -116.12413216 315.40555859 C-116.90245101 315.40647997 -117.68076987 315.40740135 -118.48267414 315.40835065 C-194.36289847 315.49800839 -270.24309544 315.52985331 -346.12336898 315.52836609 C-349.84648308 315.52832143 -353.56959716 315.52836431 -357.29271126 315.52844238 C-408.68974648 315.52944927 -460.08652572 315.50365018 -511.48340821 315.37180811 C-520.92442965 315.34787938 -530.3654418 315.33128971 -539.80648468 315.31870241 C-552.49898652 315.30168774 -565.19132139 315.27121693 -577.88372791 315.21568167 C-583.72630898 315.19016805 -589.56874087 315.16992636 -595.41138077 315.16677856 C-600.57664496 315.16366679 -605.741481 315.142312 -610.90661144 315.10539472 C-612.74198451 315.09537846 -614.57740859 315.09197988 -616.4128046 315.09598982 C-634.43450931 315.12793836 -634.43450931 315.12793836 -640.93945312 310.52832031 C-645.18022667 306.0755081 -646.54039992 302.74819186 -646.47070312 296.68457031 C-645.42292669 290.45954563 -642.10365752 285.04008557 -639.07177734 279.57666016 C-638.03161762 277.69504307 -637.02947649 275.79871757 -636.03710938 273.89160156 C-624.76036111 252.63926829 -610.25029575 231.76822417 -595.06445312 213.15332031 C-593.45761125 211.16839799 -591.8779691 209.17192306 -590.31445312 207.15332031 C-584.78029565 200.01290974 -579.05618844 193.18407828 -572.93945312 186.52832031 C-571.81005384 185.2404985 -570.68486813 183.9489661 -569.56445312 182.65332031 C-566.04537088 178.60554966 -562.41109092 174.66671359 -558.75830078 170.73974609 C-556.79448639 168.61584958 -554.93078807 166.51631643 -553.23632812 164.16894531 C-552.80835938 163.62753906 -552.38039063 163.08613281 -551.93945312 162.52832031 C-551.27945313 162.52832031 -550.61945313 162.52832031 -549.93945312 162.52832031 C-549.55007568 161.651073 -549.55007568 161.651073 -549.15283203 160.75610352 C-547.85301405 158.36961678 -546.4498859 156.7952982 -544.52539062 154.88378906 C-543.84605469 154.20638672 -543.16671875 153.52898437 -542.46679688 152.83105469 C-541.75652344 152.13302734 -541.04625 151.435 -540.31445312 150.71582031 C-539.28384766 149.68618164 -539.28384766 149.68618164 -538.23242188 148.63574219 C-534.20509152 144.64241369 -530.0683636 140.83007723 -525.77490234 137.12524414 C-523.22653198 134.90804668 -520.77611283 132.59100349 -518.31445312 130.27832031 C-512.37224516 124.77386871 -506.0929922 119.78245982 -499.66552734 114.86035156 C-498.00469002 113.57866437 -496.3625545 112.27657973 -494.72460938 110.96582031 C-487.108293 104.9120666 -479.12580249 99.70915571 -470.80615234 94.67480469 C-469.1559383 93.66128061 -467.53177258 92.60560842 -465.91210938 91.54394531 C-428.5522081 67.27254636 -384.00523669 55.61190363 -339.93945312 64.52832031 C-334.80208404 65.72215756 -329.72217499 67.09561699 -324.65039062 68.54003906 C-321.09634028 69.65699336 -321.09634028 69.65699336 -317.93945312 69.52832031 C-317.93945312 70.18832031 -317.93945312 70.84832031 -317.93945312 71.52832031 C-316.64394531 71.77582031 -315.3484375 72.02332031 -314.01367188 72.27832031 C-308.92911067 73.40888628 -304.44955814 75.31768266 -299.75195312 77.52832031 C-294.87011124 79.79093721 -290.09763103 81.94878258 -284.93945312 83.52832031 C-284.02164062 82.59890625 -283.10382813 81.66949219 -282.15820312 80.71191406 C-270.563054 69.01394301 -270.563054 69.01394301 -264.98242188 64.29003906 C-262.83373626 62.4371572 -260.7524422 60.51892889 -258.67333984 58.58862305 C-253.43170431 53.72351801 -248.0690024 49.09112762 -242.49023438 44.61035156 C-239.39935048 42.08747083 -236.43840184 39.43899887 -233.49804688 36.74316406 C-231.93945312 35.52832031 -231.93945312 35.52832031 -229.93945312 35.52832031 C-229.93945312 34.86832031 -229.93945312 34.20832031 -229.93945312 33.52832031 C-228.49804687 32.22363281 -228.49804687 32.22363281 -226.37695312 30.65332031 C-223.4125821 28.41963668 -220.47504622 26.16796638 -217.59960938 23.82128906 C-208.98713328 16.79633917 -200.13974507 10.22790984 -190.97998047 3.93359375 C-189.07947492 2.62475073 -187.19061288 1.3005861 -185.30273438 -0.02636719 C-170.34200805 -10.41072596 -154.16380326 -19.47730233 -136.93945312 -25.47167969 C-135.70710938 -25.92027344 -134.47476562 -26.36886719 -133.20507812 -26.83105469 C-87.28829726 -42.85718499 -38.10607276 -27.6873429 0 0 Z M-197.93945312 50.52832031 C-199.72964578 51.9884627 -201.52135412 53.44674848 -203.31445312 54.90332031 C-213.13637977 62.95339371 -222.72655205 71.16229596 -232.01757812 79.82128906 C-234.90349612 82.4950072 -237.84279568 85.08871001 -240.81835938 87.66113281 C-245.59812799 91.86873759 -250.25720948 96.21285242 -254.93945312 100.52832031 C-250.82387244 105.97541239 -245.98721996 109.99370871 -240.60571289 114.12280273 C-236.2045549 117.50755881 -231.94743481 121.01712027 -227.75195312 124.65332031 C-222.80605661 128.93516862 -217.80031352 133.12362187 -212.72070312 137.24707031 C-209.57561242 139.82675146 -206.47474771 142.45474442 -203.37695312 145.09082031 C-198.91148064 148.88630978 -194.39236111 152.59505173 -189.79882812 156.23535156 C-185.22247874 159.90518365 -180.71037215 163.6527933 -176.1875 167.38818359 C-172.37951413 170.52968747 -168.55858361 173.64959763 -164.68945312 176.71582031 C-160.85017654 179.76369576 -157.10793598 182.91245689 -153.37695312 186.09082031 C-149.10725065 189.72446569 -144.79696046 193.26964621 -140.34570312 196.68066406 C-137.96417178 198.50933992 -135.60157026 200.36086953 -133.24316406 202.21923828 C-131.45120225 203.63079765 -129.656413 205.03870406 -127.86132812 206.44628906 C-125.13491775 208.58520644 -122.41827401 210.73595388 -119.70507812 212.89160156 C-109.73232364 220.77662453 -99.48654874 228.09949187 -88.93066406 235.18164062 C-86.44650519 236.86170688 -84.00364953 238.59628179 -81.56445312 240.34082031 C-75.86030617 244.34753945 -69.92144979 247.95421451 -63.93945312 251.52832031 C-62.83601562 252.18960938 -61.73257813 252.85089844 -60.59570312 253.53222656 C-46.67326163 261.69090501 -32.17195723 268.22386202 -16.93945312 273.52832031 C-15.864375 273.90859375 -14.78929687 274.28886719 -13.68164062 274.68066406 C-0.99768144 278.89275577 11.85606321 280.61588108 25.17163086 281.10424805 C26.24636123 281.14501937 27.32109159 281.18579069 28.42838955 281.22779751 C41.90112795 281.6888527 55.3772163 281.65689063 68.8558228 281.62971425 C72.57261663 281.62333401 76.28941187 281.62286561 80.00621033 281.62168884 C87.00003904 281.61861774 93.99385155 281.61046318 100.98767322 281.60033935 C108.96875182 281.58904467 116.94983131 281.58363461 124.93091595 281.57864392 C141.30746897 281.56827547 157.68400584 281.55076059 174.06054688 281.52832031 C171.73563026 268.98409177 164.4443911 257.03679633 158.93554688 245.59082031 C158.63435944 244.96353027 158.333172 244.33624023 158.02285767 243.68994141 C154.57212207 236.51400519 150.99704025 229.45103146 147.06054688 222.52832031 C146.35303444 221.22921465 145.64857907 219.92843916 144.94726562 218.62597656 C139.83900871 209.21885322 134.40654817 200.02632026 128.81054688 190.90332031 C128.13725342 189.80125244 127.46395996 188.69918457 126.77026367 187.5637207 C123.49640842 182.26105439 120.17169971 177.11836595 116.29589844 172.23388672 C114.97481173 170.40995159 114.05723721 168.54490254 113.06054688 166.52832031 C112.22659858 165.26674922 111.36402415 164.02378225 110.47851562 162.79785156 C109.96506592 162.08564453 109.45161621 161.3734375 108.92260742 160.63964844 C108.09369995 159.50172852 108.09369995 159.50172852 107.24804688 158.34082031 C106.67417236 157.54998047 106.10029785 156.75914062 105.5090332 155.94433594 C91.37851965 136.55698645 76.57153186 117.69228662 60.33398438 100.02050781 C58.32969845 97.82336963 56.37441272 95.59551951 54.43554688 93.34082031 C51.45100166 89.90088674 48.26527454 86.71458472 45.02148438 83.52050781 C43.15575881 81.62504957 41.41395432 79.67385296 39.68554688 77.65332031 C33.67705913 70.68675936 27.09557294 64.26719987 20.10351562 58.29394531 C17.81415127 56.31537421 15.59863346 54.26579701 13.37304688 52.21582031 C8.09642393 47.46123769 2.52568972 43.14500754 -3.15039062 38.88476562 C-5.00222045 37.48073089 -6.83094711 36.05009436 -8.65820312 34.61425781 C-75.46396614 -17.40489276 -136.67290688 -0.91612884 -197.93945312 50.52832031 Z M-487.93554688 147.96191406 C-490.67940183 150.30614385 -493.48025849 152.54519199 -496.31445312 154.77832031 C-503.13174234 160.31235509 -509.1918813 166.61712044 -515.32666016 172.88305664 C-518.67136122 176.29509728 -522.06741204 179.65526645 -525.46289062 183.01660156 C-531.84538836 189.34478017 -538.15724858 195.64050743 -543.93945312 202.52832031 C-544.80441406 203.51574219 -545.669375 204.50316406 -546.56054688 205.52050781 C-553.9012449 213.91544853 -560.72367032 222.63463021 -567.43164062 231.54003906 C-568.80467692 233.35059728 -570.19391653 235.14623044 -571.59570312 236.93457031 C-580.39596943 248.16664756 -588.31954257 259.96690528 -596.12695312 271.90332031 C-596.84999634 273.00111816 -596.84999634 273.00111816 -597.58764648 274.12109375 C-600.06398078 277.54362557 -600.06398078 277.54362557 -600.93945312 281.52832031 C-428.01945312 281.52832031 -255.09945312 281.52832031 -76.93945312 281.52832031 C-80.85518117 278.39573788 -84.22533888 276.14867166 -88.56445312 273.77832031 C-94.08941765 270.69973311 -99.18917191 267.31323367 -104.25195312 263.50878906 C-106.96320063 261.51082034 -109.73855133 259.67228112 -112.56445312 257.84082031 C-119.97138783 252.95416729 -126.92535104 247.49403636 -133.93994141 242.06640625 C-136.73062021 239.91973024 -139.5520305 237.81724281 -142.37695312 235.71582031 C-146.74581159 232.44955028 -151.02803399 229.09608807 -155.27148438 225.66894531 C-157.75195671 223.67875668 -160.25294523 221.71698046 -162.76098633 219.76171875 C-170.97703168 213.35110645 -179.01888072 206.73918328 -187.04589844 200.09423828 C-192.52856629 195.56022183 -198.04339648 191.06533598 -203.56835938 186.58300781 C-210.64921918 180.83837478 -217.71614535 175.0780972 -224.75195312 169.27832031 C-225.47278076 168.68446533 -226.1936084 168.09061035 -226.9362793 167.47875977 C-229.90132245 165.03537303 -232.86478715 162.59023844 -235.82226562 160.13769531 C-254.26588711 144.90901702 -273.33807839 130.72203641 -293.93945312 118.52832031 C-295.00808594 117.87476563 -296.07671875 117.22121094 -297.17773438 116.54785156 C-310.37074323 108.68074017 -324.96263903 102.13106239 -339.93945312 98.52832031 C-340.89078125 98.29113281 -341.84210938 98.05394531 -342.82226562 97.80957031 C-397.14517926 84.71971161 -447.91533076 113.38713276 -487.93554688 147.96191406 Z " fill="#1F1F1F" transform="translate(735.939453125,378.4716796875)"/>
<path d="M0 0 C0.66 0.99 1.32 1.98 2 3 C1.07425608 4.81853256 0.13401005 6.62968883 -0.8125 8.4375 C-1.59560547 9.95150391 -1.59560547 9.95150391 -2.39453125 11.49609375 C-4 14 -4 14 -7 15 C-7.28875 16.134375 -7.5775 17.26875 -7.875 18.4375 C-9 22 -9 22 -11.625 23.4375 C-12.40875 23.623125 -13.1925 23.80875 -14 24 C-12.70208638 20.51825247 -11.18014318 17.48384093 -9.1796875 14.35546875 C-8.64472656 13.51435547 -8.10976562 12.67324219 -7.55859375 11.80664062 C-6.72521484 10.51016602 -6.72521484 10.51016602 -5.875 9.1875 C-5.31167969 8.30384766 -4.74835938 7.42019531 -4.16796875 6.50976562 C-2.78236826 4.33742587 -1.39295366 2.16762917 0 0 Z " fill="#262626" transform="translate(116,626)"/>
<path d="M0 0 C0.73283203 -0.00386719 1.46566406 -0.00773437 2.22070312 -0.01171875 C6.04299616 -0.00482553 9.59770765 0.20179717 13.3125 1.125 C13.3125 1.455 13.3125 1.785 13.3125 2.125 C2.62009925 2.99657852 -7.96342816 3.24313543 -18.6875 3.125 C-14.41803304 -1.14446696 -5.79880905 -0.03109281 0 0 Z " fill="#191818" transform="translate(642.6875,375.875)"/>
<path d="M0 0 C0.66 0.99 1.32 1.98 2 3 C1.360625 3.226875 0.72125 3.45375 0.0625 3.6875 C-2.26012621 4.82682205 -2.26012621 4.82682205 -2.5625 7.4375 C-2.7790625 8.7059375 -2.7790625 8.7059375 -3 10 C-4.4375 11.8125 -4.4375 11.8125 -6 13 C-6.66 13 -7.32 13 -8 13 C-8.66 14.32 -9.32 15.64 -10 17 C-10.99 16.67 -11.98 16.34 -13 16 C-12.09507812 14.89591797 -12.09507812 14.89591797 -11.171875 13.76953125 C-10.37265625 12.79371094 -9.5734375 11.81789063 -8.75 10.8125 C-7.96109375 9.84957031 -7.1721875 8.88664063 -6.359375 7.89453125 C-4.22415228 5.27499477 -2.10643639 2.64270803 0 0 Z " fill="#272626" transform="translate(159,569)"/>
<path d="M0 0 C0.89267578 0.00322266 1.78535156 0.00644531 2.70507812 0.00976562 C4.09823242 0.02233398 4.09823242 0.02233398 5.51953125 0.03515625 C6.45990234 0.03966797 7.40027344 0.04417969 8.36914062 0.04882812 C10.69016837 0.06060999 13.01106769 0.07706067 15.33203125 0.09765625 C15.33203125 0.42765625 15.33203125 0.75765625 15.33203125 1.09765625 C13.02203125 1.42765625 10.71203125 1.75765625 8.33203125 2.09765625 C8.33203125 2.42765625 8.33203125 2.75765625 8.33203125 3.09765625 C1.73203125 3.09765625 -4.86796875 3.09765625 -11.66796875 3.09765625 C-7.41966014 0.97350194 -4.66076532 -0.0296864 0 0 Z " fill="#393838" transform="translate(359.66796875,439.90234375)"/>
<path d="M0 0 C1.25425781 0.00902344 2.50851562 0.01804687 3.80078125 0.02734375 C4.75339844 0.03894531 5.70601563 0.05054688 6.6875 0.0625 C6.6875 0.3925 6.6875 0.7225 6.6875 1.0625 C4.80417969 1.35253906 4.80417969 1.35253906 2.8828125 1.6484375 C-5.55353395 2.95780158 -13.95986007 4.2824292 -22.3125 6.0625 C-21.6525 5.7325 -20.9925 5.4025 -20.3125 5.0625 C-20.3125 4.4025 -20.3125 3.7425 -20.3125 3.0625 C-14.55078125 1.59765625 -14.55078125 1.59765625 -12.3125 1.0625 C-11.549375 0.876875 -10.78625 0.69125 -10 0.5 C-6.63523103 -0.04775309 -3.40735176 -0.03184441 0 0 Z " fill="#383737" transform="translate(349.3125,472.9375)"/>
<path d="M0 0 C3.67056937 1.47797262 5.41085783 3.47615477 7.75 6.625 C8.67039062 7.85089844 8.67039062 7.85089844 9.609375 9.1015625 C10.29773438 10.04128906 10.29773438 10.04128906 11 11 C10.67 11.66 10.34 12.32 10 13 C9.01 13 8.02 13 7 13 C6.731875 12.195625 6.46375 11.39125 6.1875 10.5625 C5.795625 9.716875 5.40375 8.87125 5 8 C4.01 7.67 3.02 7.34 2 7 C0.35179805 4.39757586 0 3.13751221 0 0 Z " fill="#252524" transform="translate(846,488)"/>
<path d="M0 0 C5.68502535 1.64566523 10.76681636 4.29032784 16 7 C15.01 7.66 14.02 8.32 13 9 C8.90900668 8.02171899 5.40941281 6.46235369 2 4 C0.6875 1.8125 0.6875 1.8125 0 0 Z " fill="#282827" transform="translate(698,358)"/>
<path d="M0 0 C0.99 0.33 1.98 0.66 3 1 C3 1.66 3 2.32 3 3 C2.34 3 1.68 3 1 3 C0.9175 3.53625 0.835 4.0725 0.75 4.625 C-0.26376098 7.8352431 -2.07160549 10.26292392 -4 13 C-4.99 12.67 -5.98 12.34 -7 12 C-5.44298069 7.32894208 -2.91552627 3.91294315 0 0 Z " fill="#262626" transform="translate(127,610)"/>
<path d="M0 0 C5.31027254 1.46032495 9.46330032 3.98320986 14 7 C13.01 7.66 12.02 8.32 11 9 C6.95094468 7.93445913 4.062316 5.807123 1 3 C0.67 2.01 0.34 1.02 0 0 Z " fill="#2B2B2A" transform="translate(714,366)"/>
<path d="M0 0 C0.66 0 1.32 0 2 0 C2 0.66 2 1.32 2 2 C2.928125 2.37125 2.928125 2.37125 3.875 2.75 C6.40358627 4.23740369 6.71839004 5.43678009 8 8 C10.01669827 9.13350534 10.01669827 9.13350534 12 10 C12.33 10.66 12.66 11.32 13 12 C11.35 11.67 9.7 11.34 8 11 C8 10.34 8 9.68 8 9 C7.401875 8.731875 6.80375 8.46375 6.1875 8.1875 C3.12739306 6.52629909 1.37335723 5.18795481 0.3125 1.8125 C0.209375 1.214375 0.10625 0.61625 0 0 Z " fill="#2E2D2D" transform="translate(783,418)"/>
<path d="M0 0 C0.66 0.33 1.32 0.66 2 1 C1.01 1.66 0.02 2.32 -1 3 C-1 3.66 -1 4.32 -1 5 C-4.78187881 6.83691257 -6.94568308 7.15837626 -11 6 C-11.33 6.66 -11.66 7.32 -12 8 C-12.66 7.34 -13.32 6.68 -14 6 C-11.71220962 4.96959833 -9.42048864 3.95047982 -7.125 2.9375 C-6.47402344 2.64294922 -5.82304688 2.34839844 -5.15234375 2.04492188 C-3.45989459 1.30338487 -1.73131425 0.64560999 0 0 Z " fill="#30302F" transform="translate(596,354)"/>
<path d="M0 0 C-1.423125 0.12375 -1.423125 0.12375 -2.875 0.25 C-4.421875 0.62125 -4.421875 0.62125 -6 1 C-6.33 1.66 -6.66 2.32 -7 3 C-7.33 3.66 -7.66 4.32 -8 5 C-11.125 5.75 -11.125 5.75 -14 6 C-14.66 5.01 -15.32 4.02 -16 3 C-14.08802961 2.29954544 -12.17019565 1.615081 -10.25 0.9375 C-9.18265625 0.55464844 -8.1153125 0.17179687 -7.015625 -0.22265625 C-4.07719958 -0.98010011 -2.77651052 -1.07151741 0 0 Z " fill="#343333" transform="translate(326,447)"/>
<path d="M0 0 C3.22269618 3.79817765 5.74520378 7.57391854 8 12 C7.67 12.66 7.34 13.32 7 14 C4.0444623 11.24829249 1.88436685 8.58029701 0 5 C0 4.34 0 3.68 0 3 C-0.66 3 -1.32 3 -2 3 C-1 1 -1 1 0 0 Z " fill="#2A2A29" transform="translate(897,560)"/>
<path d="M0 0 C4.875 4.625 4.875 4.625 6 8 C5.34 8.66 4.68 9.32 4 10 C2.02 7.69 0.04 5.38 -2 3 C-1 1 -1 1 0 0 Z " fill="#282827" transform="translate(840,479)"/>
<path d="M0 0 C4.8404451 1.41671564 8.78490561 3.27258598 13 6 C13.33 6.99 13.66 7.98 14 9 C10.45756548 7.63408831 7.07372071 6.09068516 3.6875 4.375 C2.80449219 3.92898438 1.92148437 3.48296875 1.01171875 3.0234375 C0.34785156 2.68570312 -0.31601562 2.34796875 -1 2 C-0.67 1.34 -0.34 0.68 0 0 Z " fill="#2A2929" transform="translate(691,389)"/>
<path d="M0 0 C0.33 0.66 0.66 1.32 1 2 C1.7425 1.814375 2.485 1.62875 3.25 1.4375 C5.94990963 1.00796892 7.44631077 1.14877026 10 2 C10 2.66 10 3.32 10 4 C10.99 4.33 11.98 4.66 13 5 C5.32537035 4.06024943 -2.33677447 3.0277503 -10 2 C-10 1.67 -10 1.34 -10 1 C-6.7 0.67 -3.4 0.34 0 0 Z " fill="#3F3E3E" transform="translate(383,472)"/>
<path d="M0 0 C0.66 0.33 1.32 0.66 2 1 C1.01 1.8971875 1.01 1.8971875 0 2.8125 C-2.3373846 4.87501834 -2.3373846 4.87501834 -2 8 C-4.5 9.6875 -4.5 9.6875 -7 11 C-7.66 10.34 -8.32 9.68 -9 9 C-6.03 6.03 -3.06 3.06 0 0 Z " fill="#2F2F2F" transform="translate(216,510)"/>
<path d="M0 0 C0.33 0 0.66 0 1 0 C2.19937786 6.37259801 2.06475363 10.23826317 -1 16 C-1.66 15.01 -2.32 14.02 -3 13 C-2.42190703 10.64315944 -1.74386068 8.30988315 -1 6 C-0.63729412 4.00511766 -0.29359301 2.0062189 0 0 Z " fill="#313130" transform="translate(947,670)"/>
<path d="M0 0 C3.21079428 1.03204102 4.59940291 2.58748662 6.3125 5.375 C8.03433482 9.07375628 8.20907496 9.45858043 7 13 C5.82786955 11.21190303 4.66244474 9.41940875 3.5 7.625 C2.8503125 6.62726562 2.200625 5.62953125 1.53125 4.6015625 C0 2 0 2 0 0 Z " fill="#2B2B2A" transform="translate(862,565)"/>
<path d="M0 0 C7.48291572 6.15034169 7.48291572 6.15034169 10 10 C7.6875 10.3125 7.6875 10.3125 5 10 C3.375 7.6875 3.375 7.6875 2 5 C0.41754725 3.24850835 0.41754725 3.24850835 -1 2 C-0.67 1.34 -0.34 0.68 0 0 Z " fill="#292928" transform="translate(809,444)"/>
<path d="M0 0 C0.66 0.33 1.32 0.66 2 1 C-0.66666667 3.66666667 -3.33333333 6.33333333 -6 9 C-6.66 8.67 -7.32 8.34 -8 8 C-8 7.01 -8 6.02 -8 5 C-6.3203125 3.578125 -6.3203125 3.578125 -4.125 2.25 C-3.40570312 1.80140625 -2.68640625 1.3528125 -1.9453125 0.890625 C-1.30335938 0.59671875 -0.66140625 0.3028125 0 0 Z " fill="#2F2F2E" transform="translate(562,371)"/>
<path d="M0 0 C1.35015859 4.05047576 0.62084998 6.7920168 0 11 C0.66 11 1.32 11 2 11 C3.0625 12.8125 3.0625 12.8125 4 15 C3.67 15.99 3.34 16.98 3 18 C-0.89772117 13.37145612 -1.41123369 10.1796965 -1.23828125 4.171875 C-1 2 -1 2 0 0 Z " fill="#3D3D3D" transform="translate(91,670)"/>
<path d="M0 0 C7.26 0.33 14.52 0.66 22 1 C22 1.33 22 1.66 22 2 C18.7097621 2.25422542 15.41811775 2.47409878 12.125 2.6875 C10.71927734 2.79674805 10.71927734 2.79674805 9.28515625 2.90820312 C7.94130859 2.99038086 7.94130859 2.99038086 6.5703125 3.07421875 C5.74289551 3.13182373 4.91547852 3.18942871 4.06298828 3.2487793 C3.38220215 3.16668213 2.70141602 3.08458496 2 3 C1.34 2.01 0.68 1.02 0 0 Z " fill="#474746" transform="translate(744,658)"/>
<path d="M0 0 C0 0.66 0 1.32 0 2 C-6.27 1.67 -12.54 1.34 -19 1 C-19 0.67 -19 0.34 -19 0 C-16.95920995 -0.1968121 -14.91729993 -0.38202831 -12.875 -0.5625 C-11.73804688 -0.66691406 -10.60109375 -0.77132813 -9.4296875 -0.87890625 C-6.11102007 -0.99608016 -3.2437314 -0.6655072 0 0 Z " fill="#434342" transform="translate(662,378)"/>
<path d="M0 0 C2.64 1.98 5.28 3.96 8 6 C4 7 4 7 0.75 5.0625 C-0.1575 4.381875 -1.065 3.70125 -2 3 C-1.34 2.67 -0.68 2.34 0 2 C0 1.34 0 0.68 0 0 Z " fill="#2B2B2A" transform="translate(483,482)"/>
<path d="M0 0 C-3.28463659 2.18975773 -6.20696275 2.99806563 -10 4 C-10.33 3.01 -10.66 2.02 -11 1 C-7.2297564 -1.56376565 -4.32597804 -0.83191885 0 0 Z " fill="#2A2A2A" transform="translate(319,482)"/>
<path d="M0 0 C4.36109605 0.50710419 7.45075299 1.36341651 11 4 C11.33 4.99 11.66 5.98 12 7 C7.69235185 5.43358249 3.93828536 3.31663844 0 1 C0 0.67 0 0.34 0 0 Z " fill="#2C2C2B" transform="translate(647,652)"/>
<path d="M0 0 C4.23429756 1.31061591 8.07407404 2.94356259 12 5 C12 5.33 12 5.66 12 6 C7.3198369 6.26743789 4.133246 5.066623 0 3 C0 2.01 0 1.02 0 0 Z " fill="#292928" transform="translate(682,636)"/>
<path d="M0 0 C3.93673644 1.31224548 6.22719294 2.91910327 9 6 C7.35 6.33 5.7 6.66 4 7 C0 2.25 0 2.25 0 0 Z " fill="#292828" transform="translate(637,607)"/>
<path d="M0 0 C0.99 0.33 1.98 0.66 3 1 C1.54634731 2.17249353 0.08692581 3.33783816 -1.375 4.5 C-2.18710937 5.1496875 -2.99921875 5.799375 -3.8359375 6.46875 C-6 8 -6 8 -8 8 C-6.49860488 3.79609368 -3.82724957 2.10889262 0 0 Z " fill="#272727" transform="translate(558,411)"/>
<path d="M0 0 C3.81287042 1.44626119 5.32707177 3.30194812 7 7 C6.57421875 9.1640625 6.57421875 9.1640625 6 11 C4.9944239 9.54550599 3.99569565 8.08627557 3 6.625 C2.443125 5.81289063 1.88625 5.00078125 1.3125 4.1640625 C0 2 0 2 0 0 Z " fill="#2A2A29" transform="translate(855,554)"/>
<path d="M0 0 C1.32 0.33 2.64 0.66 4 1 C-0.455 3.97 -0.455 3.97 -5 7 C-5.66 6.67 -6.32 6.34 -7 6 C-4.74259377 3.66475218 -2.7194239 1.81294927 0 0 Z " fill="#2B2A2A" transform="translate(580,396)"/>
<path d="M0 0 C0.99 0.33 1.98 0.66 3 1 C4.6875 4.5625 4.6875 4.5625 6 8 C5.01 8 4.02 8 3 8 C2.87625 7.071875 2.87625 7.071875 2.75 6.125 C2.18741541 3.81562433 2.18741541 3.81562433 -0.0625 2.75 C-0.701875 2.5025 -1.34125 2.255 -2 2 C-1.34 1.34 -0.68 0.68 0 0 Z " fill="#31302F" transform="translate(883,601)"/>
<path d="M0 0 C2.37948772 0.17625835 3.70225849 0.69719773 5.37890625 2.40234375 C6.62115486 3.90649092 7.81376056 5.45129851 9 7 C8.34 7.66 7.68 8.32 7 9 C5.83037314 7.69013727 4.66437056 6.3770374 3.5 5.0625 C2.8503125 4.33160156 2.200625 3.60070312 1.53125 2.84765625 C0 1 0 1 0 0 Z " fill="#292827" transform="translate(801,484)"/>
<path d="M0 0 C2 0 2 0 3.625 1.375 C5 3 5 3 5 5 C5.66 5 6.32 5 7 5 C6.67 6.32 6.34 7.64 6 9 C4.99406757 7.8803014 3.9954151 6.7540588 3 5.625 C2.443125 4.99851562 1.88625 4.37203125 1.3125 3.7265625 C0 2 0 2 0 0 Z " fill="#292828" transform="translate(777,456)"/>
<path d="M0 0 C0.66 0.33 1.32 0.66 2 1 C1.1875 3.4375 1.1875 3.4375 0 6 C-0.99 6.33 -1.98 6.66 -3 7 C-3.66 6.34 -4.32 5.68 -5 5 C-3.625 3.5 -3.625 3.5 -2 2 C-1.34 2 -0.68 2 0 2 C0 1.34 0 0.68 0 0 Z " fill="#292929" transform="translate(506,412)"/>
<path d="M0 0 C0.66 0.33 1.32 0.66 2 1 C-2.30769231 6.78461538 -2.30769231 6.78461538 -5.8125 7.875 C-6.8953125 7.936875 -6.8953125 7.936875 -8 8 C-5.33333333 5.33333333 -2.66666667 2.66666667 0 0 Z " fill="#313130" transform="translate(526,396)"/>
<path d="M0 0 C4.51478398 0.53115106 7.34666857 2.36620292 11 5 C9.375 5.75 9.375 5.75 7 6 C1.4109589 2.82191781 1.4109589 2.82191781 0 0 Z " fill="#272726" transform="translate(733,379)"/>
<path d="M0 0 C2.97 0.99 5.94 1.98 9 3 C6 5 6 5 3.3125 4.625 C2.549375 4.41875 1.78625 4.2125 1 4 C0.67 2.68 0.34 1.36 0 0 Z " fill="#313130" transform="translate(697,643)"/>
<path d="M0 0 C4.7517398 0.43197635 6.92000054 1.32769295 10 5 C6.28111761 4.49287967 3.26545761 3.88391785 0 2 C0 1.34 0 0.68 0 0 Z " fill="#262626" transform="translate(652,619)"/>
<path d="M0 0 C3.67420866 0.30618405 4.78135513 0.75771784 7.3125 3.5625 C8.1478125 4.7690625 8.1478125 4.7690625 9 6 C4.58763974 6 3.21615077 3.9302707 0 1 C0 0.67 0 0.34 0 0 Z " fill="#272626" transform="translate(553,582)"/>
<path d="M0 0 C0 0.66 0 1.32 0 2 C-2.375 3.6875 -2.375 3.6875 -5 5 C-5.66 4.67 -6.32 4.34 -7 4 C-7 3.01 -7 2.02 -7 1 C-3.375 -1.125 -3.375 -1.125 0 0 Z " fill="#262626" transform="translate(287,463)"/>
<path d="M0 0 C-0.99 0.495 -0.99 0.495 -2 1 C-2 1.66 -2 2.32 -2 3 C-5.3 3 -8.6 3 -12 3 C-7.86112344 0.24074896 -4.92824278 -0.13689563 0 0 Z " fill="#363535" transform="translate(339,443)"/>
<path d="M0 0 C3.01532925 1.00510975 4.18682851 1.46155991 6 4 C5.6875 6.6875 5.6875 6.6875 5 9 C0.57142857 3.85714286 0.57142857 3.85714286 0 0 Z " fill="#2A2929" transform="translate(877,590)"/>
<path d="M0 0 C2.5625 2.25 2.5625 2.25 5 5 C4.8125 7.3125 4.8125 7.3125 4 9 C0.125 5.25 0.125 5.25 -1 3 C-0.67 2.01 -0.34 1.02 0 0 Z " fill="#292827" transform="translate(850,545)"/>
<path d="M0 0 C0.66 0.33 1.32 0.66 2 1 C0.35 2.98 -1.3 4.96 -3 7 C-4.32 6.67 -5.64 6.34 -7 6 C-4.69 4.02 -2.38 2.04 0 0 Z " fill="#323231" transform="translate(234,495)"/>
<path d="M0 0 C3.0625 1.25 3.0625 1.25 6 3 C6.33 3.99 6.66 4.98 7 6 C5.68 6.33 4.36 6.66 3 7 C2.67 6.01 2.34 5.02 2 4 C0.00334686 2.31461399 0.00334686 2.31461399 -2 1 C-1.34 0.67 -0.68 0.34 0 0 Z " fill="#2E2D2D" transform="translate(437,492)"/>
<path d="M0 0 C3.79588866 0.54226981 5.47211993 2.20127563 8 5 C7.67 5.99 7.34 6.98 7 8 C5.83035398 6.8572081 4.66435444 5.71068285 3.5 4.5625 C2.8503125 3.92441406 2.200625 3.28632813 1.53125 2.62890625 C0 1 0 1 0 0 Z " fill="#282727" transform="translate(784,465)"/>
<path d="M0 0 C5.75 1.75 5.75 1.75 8 4 C5.36 4 2.72 4 0 4 C0 2.68 0 1.36 0 0 Z " fill="#2E2E2E" transform="translate(443,460)"/>
<path d="M0 0 C-4.95 2.475 -4.95 2.475 -10 5 C-10 4.01 -10 3.02 -10 2 C-4.5 -1.125 -4.5 -1.125 0 0 Z " fill="#282727" transform="translate(595,391)"/>
<path d="M0 0 C4.95 0.99 4.95 0.99 10 2 C9.01 3.485 9.01 3.485 8 5 C7.01 5 6.02 5 5 5 C5 4.34 5 3.68 5 3 C4.360625 2.87625 3.72125 2.7525 3.0625 2.625 C2.381875 2.41875 1.70125 2.2125 1 2 C0.67 1.34 0.34 0.68 0 0 Z " fill="#363635" transform="translate(722,653)"/>
<path d="M0 0 C2.31 1.65 4.62 3.3 7 5 C5.02 5.99 5.02 5.99 3 7 C0 3.375 0 3.375 0 0 Z " fill="#282827" transform="translate(529,520)"/>
<path d="M0 0 C0.8971875 0.309375 0.8971875 0.309375 1.8125 0.625 C0.69176138 1.46405565 -0.43424547 2.29607831 -1.5625 3.125 C-2.18898438 3.5890625 -2.81546875 4.053125 -3.4609375 4.53125 C-5.1875 5.625 -5.1875 5.625 -7.1875 5.625 C-5.69046729 2.17030914 -4.27938051 -0.73360809 0 0 Z " fill="#282627" transform="translate(278.1875,502.375)"/>
<path d="M0 0 C2.64 0.33 5.28 0.66 8 1 C8 1.99 8 2.98 8 4 C4.41465407 4 2.92504174 2.97637955 0 1 C0 0.67 0 0.34 0 0 Z " fill="#303030" transform="translate(452,503)"/>
<path d="M0 0 C0.66 0.33 1.32 0.66 2 1 C1.67 1.99 1.34 2.98 1 4 C-1.375 4.625 -1.375 4.625 -4 5 C-4.66 4.34 -5.32 3.68 -6 3 C-4.03533587 1.93224776 -2.03144641 0.93446535 0 0 Z " fill="#2A2A2A" transform="translate(292,458)"/>
<path d="M0 0 C2.3828125 0.0234375 2.3828125 0.0234375 5.125 0.375 C6.03507812 0.48585938 6.94515625 0.59671875 7.8828125 0.7109375 C8.93082031 0.85402344 8.93082031 0.85402344 10 1 C5.61991557 3.58464442 2.88874887 2.81479148 -2 2 C-1.34 1.34 -0.68 0.68 0 0 Z " fill="#292827" transform="translate(391,443)"/>
<path d="M0 0 C0.66 0.33 1.32 0.66 2 1 C2 1.66 2 2.32 2 3 C0.25 4.6875 0.25 4.6875 -2 6 C-4.25 5.6875 -4.25 5.6875 -6 5 C-4.02 3.35 -2.04 1.7 0 0 Z " fill="#2D2D2C" transform="translate(534,390)"/>
<path d="M0 0 C0.66 0 1.32 0 2 0 C1.25 4.75 1.25 4.75 -1 7 C-1.66 7 -2.32 7 -3 7 C-1.125 1.125 -1.125 1.125 0 0 Z " fill="#2A2A2A" transform="translate(96,660)"/>
<path d="M0 0 C2.45823172 3.68734758 3.01242616 6.69699971 4 11 C3.34 10.67 2.68 10.34 2 10 C2 9.01 2 8.02 2 7 C1.34 7 0.68 7 0 7 C-1.125 2.25 -1.125 2.25 0 0 Z " fill="#373636" transform="translate(940,647)"/>
<path d="M0 0 C2.15377564 2.62198774 3.40072174 4.64404172 4 8 C2.68 7.67 1.36 7.34 0 7 C-0.38133299 5.0085944 -0.71325582 3.00720923 -1 1 C-0.67 0.67 -0.34 0.34 0 0 Z " fill="#2C2C2B" transform="translate(917,596)"/>
<path d="M0 0 C0.66 0 1.32 0 2 0 C3.6875 2.375 3.6875 2.375 5 5 C4.67 5.66 4.34 6.32 4 7 C2.68 6.34 1.36 5.68 0 5 C0 3.35 0 1.7 0 0 Z " fill="#242423" transform="translate(912,589)"/>
<path d="M0 0 C2.875 0.3125 2.875 0.3125 6 1 C6.66 1.99 7.32 2.98 8 4 C4.28400809 4.20086443 3.22791555 4.1519437 0 2 C0 1.34 0 0.68 0 0 Z " fill="#252424" transform="translate(552,542)"/>
<path d="M0 0 C3.16115776 1.36983503 3.9927092 1.9890638 6 5 C5.34 5 4.68 5 4 5 C3.67 5.66 3.34 6.32 3 7 C0 2.25 0 2.25 0 0 Z " fill="#262625" transform="translate(832,471)"/>
<path d="M0 0 C1.98 0 3.96 0 6 0 C5.34 1.32 4.68 2.64 4 4 C2.35 3.67 0.7 3.34 -1 3 C-0.67 2.01 -0.34 1.02 0 0 Z " fill="#292828" transform="translate(412,448)"/>
<path d="M0 0 C0.99 0.33 1.98 0.66 3 1 C0.525 4.465 0.525 4.465 -2 8 C-2.33 7.01 -2.66 6.02 -3 5 C-1.5625 2.3125 -1.5625 2.3125 0 0 Z " fill="#292828" transform="translate(167,608)"/>
<path d="M0 0 C0.66 0 1.32 0 2 0 C3.6875 1.75 3.6875 1.75 5 4 C4.6875 6.25 4.6875 6.25 4 8 C0 3.375 0 3.375 0 0 Z " fill="#252424" transform="translate(825,511)"/>
<path d="M0 0 C0 0.66 0 1.32 0 2 C-3.46153846 5 -3.46153846 5 -6 5 C-6.33 4.01 -6.66 3.02 -7 2 C-2.25 0 -2.25 0 0 0 Z " fill="#272727" transform="translate(266,511)"/>
<path d="M0 0 C0.66 0.33 1.32 0.66 2 1 C1.42655063 3.86724686 1.1385485 4.8614515 -1 7 C-1.99 6.67 -2.98 6.34 -4 6 C-3.01 5.34 -2.02 4.68 -1 4 C-1 3.01 -1 2.02 -1 1 C-0.67 0.67 -0.34 0.34 0 0 Z " fill="#2D2C2D" transform="translate(257,478)"/>
<path d="M0 0 C1.32 0.33 2.64 0.66 4 1 C4 1.66 4 2.32 4 3 C4.66 3 5.32 3 6 3 C6.33 3.99 6.66 4.98 7 6 C4.0625 5.25 4.0625 5.25 1 4 C0.125 1.875 0.125 1.875 0 0 Z " fill="#272627" transform="translate(683,384)"/>
<path d="M0 0 C1.5625 1.6875 1.5625 1.6875 3 4 C2.6875 6.75 2.6875 6.75 2 9 C-0.37783838 6.62216162 -0.59009208 5.27926335 -1 2 C-0.67 1.34 -0.34 0.68 0 0 Z " fill="#282828" transform="translate(909,581)"/>
<path d="M0 0 C2.31 1.65 4.62 3.3 7 5 C6.01 5.33 5.02 5.66 4 6 C1.8125 4.75 1.8125 4.75 0 3 C0 2.01 0 1.02 0 0 Z " fill="#302F2F" transform="translate(590,570)"/>
<path d="M0 0 C0.6875 1.8125 0.6875 1.8125 1 4 C-0.4375 5.75 -0.4375 5.75 -2 7 C-2.99 6.67 -3.98 6.34 -5 6 C-3.35 4.02 -1.7 2.04 0 0 Z " fill="#2A2B2A" transform="translate(165,562)"/>
<path d="M0 0 C-2.31 1.32 -4.62 2.64 -7 4 C-7.33 2.68 -7.66 1.36 -8 0 C-4.94736336 -0.98120464 -3.05263664 -0.98120464 0 0 Z " fill="#2E2D2D" transform="translate(288,498)"/>
<path d="M0 0 C-1.20703125 1.51953125 -1.20703125 1.51953125 -3 3 C-5.26171875 3.07421875 -5.26171875 3.07421875 -7.6875 2.6875 C-8.89986328 2.50767578 -8.89986328 2.50767578 -10.13671875 2.32421875 C-10.75160156 2.21722656 -11.36648438 2.11023438 -12 2 C-12 1.67 -12 1.34 -12 1 C-7.93631321 0.22596442 -4.13574827 -0.0984702 0 0 Z " fill="#474645" transform="translate(352,441)"/>
<path d="M0 0 C0.66 0.33 1.32 0.66 2 1 C2 1.99 2 2.98 2 4 C-0.31 4.33 -2.62 4.66 -5 5 C-3.35 3.35 -1.7 1.7 0 0 Z " fill="#2E2D2D" transform="translate(541,385)"/>
<path d="M0 0 C3.3 0 6.6 0 10 0 C10 0.33 10 0.66 10 1 C6.7 1 3.4 1 0 1 C0 0.67 0 0.34 0 0 Z " fill="#565454" transform="translate(270,694)"/>
<path d="M0 0 C2.31 0 4.62 0 7 0 C7 0.33 7 0.66 7 1 C4.69 1 2.38 1 0 1 C0 0.67 0 0.34 0 0 Z " fill="#565556" transform="translate(675,694)"/>
<path d="M0 0 C2.31 0 4.62 0 7 0 C7 0.33 7 0.66 7 1 C4.69 1 2.38 1 0 1 C0 0.67 0 0.34 0 0 Z " fill="#555453" transform="translate(497,694)"/>
<path d="M0 0 C2.31 0 4.62 0 7 0 C7 0.33 7 0.66 7 1 C4.69 1 2.38 1 0 1 C0 0.67 0 0.34 0 0 Z " fill="#555555" transform="translate(414,694)"/>
<path d="M0 0 C1.98 0 3.96 0 6 0 C6 0.33 6 0.66 6 1 C4.02 1 2.04 1 0 1 C0 0.67 0 0.34 0 0 Z " fill="#545353" transform="translate(882,694)"/>
<path d="M0 0 C1.65 0 3.3 0 5 0 C5 0.33 5 0.66 5 1 C3.35 1 1.7 1 0 1 C0 0.67 0 0.34 0 0 Z " fill="#545353" transform="translate(763,694)"/>
<path d="M0 0 C1.65 0 3.3 0 5 0 C5 0.33 5 0.66 5 1 C3.35 1 1.7 1 0 1 C0 0.67 0 0.34 0 0 Z " fill="#545353" transform="translate(659,694)"/>
<path d="M0 0 C1.65 0 3.3 0 5 0 C5 0.33 5 0.66 5 1 C3.35 1 1.7 1 0 1 C0 0.67 0 0.34 0 0 Z " fill="#555353" transform="translate(608,694)"/>
<path d="M0 0 C1.65 0 3.3 0 5 0 C5 0.33 5 0.66 5 1 C3.35 1 1.7 1 0 1 C0 0.67 0 0.34 0 0 Z " fill="#555453" transform="translate(368,694)"/>
<path d="M0 0 C1.65 0 3.3 0 5 0 C5 0.33 5 0.66 5 1 C3.35 1 1.7 1 0 1 C0 0.67 0 0.34 0 0 Z " fill="#565454" transform="translate(283,694)"/>
<path d="M0 0 C4 1 4 1 4 1 Z " fill="#545454" transform="translate(819,694)"/>
<path d="M0 0 C4 1 4 1 4 1 Z " fill="#555455" transform="translate(806,694)"/>
<path d="M0 0 C4 1 4 1 4 1 Z " fill="#545353" transform="translate(785,694)"/>
<path d="M0 0 C4 1 4 1 4 1 Z " fill="#575555" transform="translate(758,694)"/>
<path d="M0 0 C4 1 4 1 4 1 Z " fill="#545353" transform="translate(745,694)"/>
<path d="M0 0 C4 1 4 1 4 1 Z " fill="#545453" transform="translate(729,694)"/>
<path d="M0 0 C4 1 4 1 4 1 Z " fill="#535252" transform="translate(585,694)"/>
<path d="M0 0 C4 1 4 1 4 1 Z " fill="#565454" transform="translate(438,694)"/>
<path d="M0 0 C4 1 4 1 4 1 Z " fill="#555455" transform="translate(409,694)"/>
<path d="M0 0 C4 1 4 1 4 1 Z " fill="#565454" transform="translate(398,694)"/>
<path d="M0 0 C4 1 4 1 4 1 Z " fill="#555454" transform="translate(393,694)"/>
<path d="M0 0 C4 1 4 1 4 1 Z " fill="#555353" transform="translate(353,694)"/>
<path d="M0 0 C3 1 3 1 3 1 Z " fill="#545454" transform="translate(874,694)"/>
<path d="M0 0 C3 1 3 1 3 1 Z " fill="#545352" transform="translate(850,694)"/>
<path d="M0 0 C3 1 3 1 3 1 Z " fill="#555554" transform="translate(790,694)"/>
<path d="M0 0 C3 1 3 1 3 1 Z " fill="#545454" transform="translate(711,694)"/>
<path d="M0 0 C3 1 3 1 3 1 Z " fill="#535353" transform="translate(706,694)"/>
<path d="M0 0 C3 1 3 1 3 1 Z " fill="#555454" transform="translate(650,694)"/>
<path d="M0 0 C3 1 3 1 3 1 Z " fill="#555353" transform="translate(618,694)"/>
<path d="M0 0 C3 1 3 1 3 1 Z " fill="#545353" transform="translate(602,694)"/>
<path d="M0 0 C3 1 3 1 3 1 Z " fill="#545252" transform="translate(578,694)"/>
<path d="M0 0 C3 1 3 1 3 1 Z " fill="#555354" transform="translate(546,694)"/>
<path d="M0 0 C3 1 3 1 3 1 Z " fill="#545253" transform="translate(538,694)"/>
<path d="M0 0 C3 1 3 1 3 1 Z " fill="#565453" transform="translate(518,694)"/>
<path d="M0 0 C3 1 3 1 3 1 Z " fill="#555453" transform="translate(482,694)"/>
<path d="M0 0 C3 1 3 1 3 1 Z " fill="#555353" transform="translate(474,694)"/>
<path d="M0 0 C3 1 3 1 3 1 Z " fill="#555454" transform="translate(194,694)"/>
<path d="" fill="#454544" transform="translate(0,0)"/>
<path d="M0 0 C2 1 2 1 2 1 Z " fill="#555454" transform="translate(902,694)"/>
<path d="M0 0 C2 1 2 1 2 1 Z " fill="#545353" transform="translate(899,694)"/>
<path d="M0 0 C2 1 2 1 2 1 Z " fill="#555453" transform="translate(894,694)"/>
<path d="M0 0 C2 1 2 1 2 1 Z " fill="#545353" transform="translate(891,694)"/>
<path d="M0 0 C2 1 2 1 2 1 Z " fill="#545354" transform="translate(878,694)"/>
<path d="M0 0 C2 1 2 1 2 1 Z " fill="#565554" transform="translate(870,694)"/>
<path d="M0 0 C2 1 2 1 2 1 Z " fill="#565555" transform="translate(867,694)"/>
<path d="M0 0 C2 1 2 1 2 1 Z " fill="#555353" transform="translate(862,694)"/>
<path d="M0 0 C2 1 2 1 2 1 Z " fill="#565453" transform="translate(854,694)"/>
<path d="M0 0 C2 1 2 1 2 1 Z " fill="#565554" transform="translate(835,694)"/>
<path d="M0 0 C2 1 2 1 2 1 Z " fill="#555454" transform="translate(814,694)"/>
<path d="M0 0 C2 1 2 1 2 1 Z " fill="#545454" transform="translate(811,694)"/>
<path d="M0 0 C2 1 2 1 2 1 Z " fill="#545454" transform="translate(803,694)"/>
<path d="M0 0 C2 1 2 1 2 1 Z " fill="#565454" transform="translate(795,694)"/>
<path d="M0 0 C2 1 2 1 2 1 Z " fill="#555453" transform="translate(774,694)"/>
<path d="M0 0 C2 1 2 1 2 1 Z " fill="#565554" transform="translate(771,694)"/>
<path d="M0 0 C2 1 2 1 2 1 Z " fill="#575655" transform="translate(755,694)"/>
<path d="M0 0 C2 1 2 1 2 1 Z " fill="#575655" transform="translate(752,694)"/>
<path d="M0 0 C2 1 2 1 2 1 Z " fill="#555554" transform="translate(739,694)"/>
<path d="M0 0 C2 1 2 1 2 1 Z " fill="#555454" transform="translate(734,694)"/>
<path d="M0 0 C2 1 2 1 2 1 Z " fill="#555454" transform="translate(718,694)"/>
<path d="M0 0 C2 1 2 1 2 1 Z " fill="#535354" transform="translate(715,694)"/>
<path d="M0 0 C2 1 2 1 2 1 Z " fill="#565555" transform="translate(694,694)"/>
<path d="M0 0 C2 1 2 1 2 1 Z " fill="#565556" transform="translate(686,694)"/>
<path d="M0 0 C2 1 2 1 2 1 Z " fill="#555455" transform="translate(683,694)"/>
<path d="M0 0 C2 1 2 1 2 1 Z " fill="#555455" transform="translate(667,694)"/>
<path d="M0 0 C2 1 2 1 2 1 Z " fill="#575454" transform="translate(646,694)"/>
<path d="M0 0 C2 1 2 1 2 1 Z " fill="#545353" transform="translate(643,694)"/>
<path d="M0 0 C2 1 2 1 2 1 Z " fill="#565655" transform="translate(638,694)"/>
<path d="M0 0 C2 1 2 1 2 1 Z " fill="#555454" transform="translate(635,694)"/>
<path d="M0 0 C2 1 2 1 2 1 Z " fill="#575555" transform="translate(630,694)"/>
<path d="M0 0 C2 1 2 1 2 1 Z " fill="#565455" transform="translate(627,694)"/>
<path d="M0 0 C2 1 2 1 2 1 Z " fill="#565454" transform="translate(622,694)"/>
<path d="M0 0 C2 1 2 1 2 1 Z " fill="#565254" transform="translate(595,694)"/>
<path d="M0 0 C2 1 2 1 2 1 Z " fill="#545253" transform="translate(571,694)"/>
<path d="M0 0 C2 1 2 1 2 1 Z " fill="#575455" transform="translate(566,694)"/>
<path d="M0 0 C2 1 2 1 2 1 Z " fill="#555454" transform="translate(563,694)"/>
<path d="M0 0 C2 1 2 1 2 1 Z " fill="#545352" transform="translate(555,694)"/>
<path d="M0 0 C2 1 2 1 2 1 Z " fill="#555353" transform="translate(542,694)"/>
<path d="M0 0 C2 1 2 1 2 1 Z " fill="#565454" transform="translate(531,694)"/>
<path d="M0 0 C2 1 2 1 2 1 Z " fill="#555553" transform="translate(523,694)"/>
<path d="M0 0 C2 1 2 1 2 1 Z " fill="#545353" transform="translate(515,694)"/>
<path d="M0 0 C2 1 2 1 2 1 Z " fill="#535252" transform="translate(491,694)"/>
<path d="M0 0 C2 1 2 1 2 1 Z " fill="#565454" transform="translate(486,694)"/>
<path d="M0 0 C2 1 2 1 2 1 Z " fill="#565354" transform="translate(478,694)"/>
<path d="M0 0 C2 1 2 1 2 1 Z " fill="#535152" transform="translate(459,694)"/>
<path d="M0 0 C2 1 2 1 2 1 Z " fill="#555353" transform="translate(443,694)"/>
<path d="M0 0 C2 1 2 1 2 1 Z " fill="#565555" transform="translate(422,694)"/>
<path d="M0 0 C2 1 2 1 2 1 Z " fill="#565555" transform="translate(406,694)"/>
<path d="M0 0 C2 1 2 1 2 1 Z " fill="#565453" transform="translate(403,694)"/>
<path d="M0 0 C2 1 2 1 2 1 Z " fill="#555453" transform="translate(374,694)"/>
<path d="M0 0 C2 1 2 1 2 1 Z " fill="#555455" transform="translate(363,694)"/>
<path d="M0 0 C2 1 2 1 2 1 Z " fill="#525252" transform="translate(347,694)"/>
<path d="M0 0 C2 1 2 1 2 1 Z " fill="#565452" transform="translate(342,694)"/>
<path d="M0 0 C2 1 2 1 2 1 Z " fill="#545453" transform="translate(339,694)"/>
<path d="M0 0 C2 1 2 1 2 1 Z " fill="#545354" transform="translate(315,694)"/>
<path d="M0 0 C2 1 2 1 2 1 Z " fill="#555453" transform="translate(307,694)"/>
<path d="M0 0 C2 1 2 1 2 1 Z " fill="#565555" transform="translate(302,694)"/>
<path d="M0 0 C2 1 2 1 2 1 Z " fill="#555454" transform="translate(299,694)"/>
<path d="M0 0 C2 1 2 1 2 1 Z " fill="#565554" transform="translate(246,694)"/>
<path d="M0 0 C2 1 2 1 2 1 Z " fill="#545554" transform="translate(227,694)"/>
<path d="M0 0 C2 1 2 1 2 1 Z " fill="#565354" transform="translate(222,694)"/>
<path d="M0 0 C2 1 2 1 2 1 Z " fill="#575454" transform="translate(214,694)"/>
<path d="M0 0 C2 1 2 1 2 1 Z " fill="#545354" transform="translate(211,694)"/>
<path d="M0 0 C2 1 2 1 2 1 Z " fill="#565453" transform="translate(198,694)"/>
<path d="M0 0 C2 1 2 1 2 1 Z " fill="#545354" transform="translate(187,694)"/>
<path d="M0 0 C2 1 2 1 2 1 Z " fill="#585453" transform="translate(174,694)"/>
<path d="M0 0 C2 1 2 1 2 1 Z " fill="#545253" transform="translate(163,694)"/>
<path d="M0 0 C2 1 2 1 2 1 Z " fill="#545355" transform="translate(155,694)"/>
<path d="M0 0 C2 1 2 1 2 1 Z " fill="#565555" transform="translate(150,694)"/>
<path d="M0 0 C2 1 2 1 2 1 Z " fill="#555555" transform="translate(147,694)"/>
<path d="M0 0 C2 1 2 1 2 1 Z " fill="#494847" transform="translate(694,640)"/>
<path d="" fill="#494748" transform="translate(0,0)"/>
<path d="" fill="#484746" transform="translate(0,0)"/>
<path d="M0 0 C2 1 2 1 2 1 Z " fill="#494645" transform="translate(537,573)"/>
<path d="" fill="#4C4A4A" transform="translate(0,0)"/>
<path d="M0 0 C2 1 2 1 2 1 Z " fill="#4F4B4B" transform="translate(344,440)"/>
<path d="M0 0 C2 1 2 1 2 1 Z " fill="#494747" transform="translate(596,352)"/>
<path d="" fill="#515251" transform="translate(0,0)"/>
<path d="" fill="#555455" transform="translate(0,0)"/>
<path d="" fill="#555454" transform="translate(0,0)"/>
<path d="" fill="#545353" transform="translate(0,0)"/>
<path d="" fill="#555253" transform="translate(0,0)"/>
<path d="" fill="#555354" transform="translate(0,0)"/>
<path d="" fill="#545256" transform="translate(0,0)"/>
<path d="" fill="#575354" transform="translate(0,0)"/>
<path d="" fill="#565455" transform="translate(0,0)"/>
<path d="" fill="#575555" transform="translate(0,0)"/>
<path d="" fill="#575655" transform="translate(0,0)"/>
<path d="" fill="#555455" transform="translate(0,0)"/>
<path d="" fill="#545353" transform="translate(0,0)"/>
<path d="" fill="#575654" transform="translate(0,0)"/>
<path d="" fill="#555453" transform="translate(0,0)"/>
<path d="" fill="#565553" transform="translate(0,0)"/>
<path d="" fill="#575655" transform="translate(0,0)"/>
<path d="" fill="#565354" transform="translate(0,0)"/>
<path d="" fill="#565554" transform="translate(0,0)"/>
<path d="" fill="#565754" transform="translate(0,0)"/>
<path d="" fill="#575454" transform="translate(0,0)"/>
<path d="" fill="#565554" transform="translate(0,0)"/>
<path d="" fill="#555454" transform="translate(0,0)"/>
<path d="" fill="#545453" transform="translate(0,0)"/>
<path d="" fill="#565356" transform="translate(0,0)"/>
<path d="" fill="#565354" transform="translate(0,0)"/>
<path d="" fill="#565353" transform="translate(0,0)"/>
<path d="" fill="#545352" transform="translate(0,0)"/>
<path d="" fill="#545454" transform="translate(0,0)"/>
<path d="" fill="#565455" transform="translate(0,0)"/>
<path d="" fill="#555253" transform="translate(0,0)"/>
<path d="" fill="#565655" transform="translate(0,0)"/>
<path d="" fill="#555354" transform="translate(0,0)"/>
<path d="" fill="#525352" transform="translate(0,0)"/>
<path d="" fill="#535252" transform="translate(0,0)"/>
<path d="" fill="#535152" transform="translate(0,0)"/>
<path d="" fill="#575454" transform="translate(0,0)"/>
<path d="" fill="#565454" transform="translate(0,0)"/>
<path d="" fill="#555554" transform="translate(0,0)"/>
<path d="" fill="#555454" transform="translate(0,0)"/>
<path d="" fill="#555555" transform="translate(0,0)"/>
<path d="" fill="#565555" transform="translate(0,0)"/>
<path d="" fill="#565454" transform="translate(0,0)"/>
<path d="" fill="#555554" transform="translate(0,0)"/>
<path d="" fill="#555556" transform="translate(0,0)"/>
<path d="" fill="#575555" transform="translate(0,0)"/>
<path d="" fill="#545354" transform="translate(0,0)"/>
<path d="" fill="#555454" transform="translate(0,0)"/>
<path d="" fill="#545353" transform="translate(0,0)"/>
<path d="" fill="#575554" transform="translate(0,0)"/>
<path d="" fill="#555353" transform="translate(0,0)"/>
<path d="" fill="#545354" transform="translate(0,0)"/>
<path d="" fill="#555653" transform="translate(0,0)"/>
<path d="" fill="#555352" transform="translate(0,0)"/>
<path d="" fill="#545454" transform="translate(0,0)"/>
<path d="" fill="#575453" transform="translate(0,0)"/>
<path d="" fill="#545553" transform="translate(0,0)"/>
<path d="" fill="#565654" transform="translate(0,0)"/>
<path d="" fill="#565455" transform="translate(0,0)"/>
<path d="" fill="#555455" transform="translate(0,0)"/>
<path d="" fill="#575556" transform="translate(0,0)"/>
<path d="" fill="#565454" transform="translate(0,0)"/>
<path d="" fill="#555656" transform="translate(0,0)"/>
<path d="" fill="#545453" transform="translate(0,0)"/>
<path d="" fill="#555456" transform="translate(0,0)"/>
<path d="" fill="#565554" transform="translate(0,0)"/>
<path d="" fill="#565355" transform="translate(0,0)"/>
<path d="" fill="#565455" transform="translate(0,0)"/>
<path d="" fill="#565555" transform="translate(0,0)"/>
<path d="" fill="#565555" transform="translate(0,0)"/>
<path d="" fill="#595654" transform="translate(0,0)"/>
<path d="" fill="#575354" transform="translate(0,0)"/>
<path d="" fill="#565455" transform="translate(0,0)"/>
<path d="" fill="#555353" transform="translate(0,0)"/>
<path d="" fill="#545354" transform="translate(0,0)"/>
<path d="" fill="#585655" transform="translate(0,0)"/>
<path d="" fill="#525153" transform="translate(0,0)"/>
<path d="" fill="#535351" transform="translate(0,0)"/>
<path d="" fill="#545351" transform="translate(0,0)"/>
<path d="" fill="#504D4C" transform="translate(0,0)"/>
<path d="" fill="#494849" transform="translate(0,0)"/>
<path d="" fill="#535454" transform="translate(0,0)"/>
<path d="" fill="#504D4C" transform="translate(0,0)"/>
<path d="" fill="#4A4948" transform="translate(0,0)"/>
<path d="" fill="#4B4A4A" transform="translate(0,0)"/>
<path d="" fill="#4A4A48" transform="translate(0,0)"/>
<path d="" fill="#453F42" transform="translate(0,0)"/>
<path d="" fill="#4B4A49" transform="translate(0,0)"/>
<path d="" fill="#464444" transform="translate(0,0)"/>
<path d="" fill="#454344" transform="translate(0,0)"/>
<path d="" fill="#4B4A4A" transform="translate(0,0)"/>
<path d="" fill="#444243" transform="translate(0,0)"/>
<path d="" fill="#494847" transform="translate(0,0)"/>
<path d="" fill="#4C4A49" transform="translate(0,0)"/>
<path d="" fill="#4B4849" transform="translate(0,0)"/>
<path d="" fill="#4A4747" transform="translate(0,0)"/>
<path d="" fill="#474546" transform="translate(0,0)"/>
<path d="" fill="#474644" transform="translate(0,0)"/>
<path d="" fill="#4B4B4A" transform="translate(0,0)"/>
<path d="" fill="#4D4E4A" transform="translate(0,0)"/>
<path d="" fill="#4B4A49" transform="translate(0,0)"/>
<path d="" fill="#484745" transform="translate(0,0)"/>
<path d="" fill="#494746" transform="translate(0,0)"/>
<path d="" fill="#484645" transform="translate(0,0)"/>
<path d="" fill="#424344" transform="translate(0,0)"/>
<path d="" fill="#4C4947" transform="translate(0,0)"/>
<path d="" fill="#494547" transform="translate(0,0)"/>
<path d="" fill="#464544" transform="translate(0,0)"/>
<path d="" fill="#4A4746" transform="translate(0,0)"/>
<path d="" fill="#484645" transform="translate(0,0)"/>
<path d="" fill="#4D4949" transform="translate(0,0)"/>
<path d="" fill="#4A494B" transform="translate(0,0)"/>
<path d="" fill="#4B4B49" transform="translate(0,0)"/>
<path d="" fill="#484847" transform="translate(0,0)"/>
<path d="" fill="#484746" transform="translate(0,0)"/>
<path d="" fill="#474647" transform="translate(0,0)"/>
<path d="" fill="#474748" transform="translate(0,0)"/>
<path d="" fill="#4A4947" transform="translate(0,0)"/>
<path d="" fill="#4B4946" transform="translate(0,0)"/>
<path d="" fill="#4A494A" transform="translate(0,0)"/>
<path d="" fill="#4B4945" transform="translate(0,0)"/>
<path d="" fill="#464745" transform="translate(0,0)"/>
<path d="" fill="#484647" transform="translate(0,0)"/>
<path d="" fill="#484746" transform="translate(0,0)"/>
<path d="" fill="#464644" transform="translate(0,0)"/>
<path d="" fill="#474644" transform="translate(0,0)"/>
<path d="" fill="#484744" transform="translate(0,0)"/>
<path d="" fill="#484848" transform="translate(0,0)"/>
<path d="" fill="#4A4849" transform="translate(0,0)"/>
<path d="" fill="#4C4747" transform="translate(0,0)"/>
<path d="" fill="#4A494A" transform="translate(0,0)"/>
<path d="" fill="#4A4A49" transform="translate(0,0)"/>
<path d="" fill="#494745" transform="translate(0,0)"/>
<path d="" fill="#464847" transform="translate(0,0)"/>
<path d="" fill="#4A4949" transform="translate(0,0)"/>
<path d="" fill="#474446" transform="translate(0,0)"/>
<path d="" fill="#494747" transform="translate(0,0)"/>
<path d="" fill="#49494A" transform="translate(0,0)"/>
<path d="" fill="#4C4C4D" transform="translate(0,0)"/>
<path d="" fill="#4C4D48" transform="translate(0,0)"/>
<path d="" fill="#4B4A48" transform="translate(0,0)"/>
<path d="" fill="#474548" transform="translate(0,0)"/>
<path d="" fill="#4D4C4B" transform="translate(0,0)"/>
<path d="" fill="#4A4745" transform="translate(0,0)"/>
<path d="" fill="#464446" transform="translate(0,0)"/>
<path d="" fill="#4A4A48" transform="translate(0,0)"/>
<path d="" fill="#4E4C4D" transform="translate(0,0)"/>
<path d="" fill="#474543" transform="translate(0,0)"/>
<path d="" fill="#464442" transform="translate(0,0)"/>
<path d="" fill="#474645" transform="translate(0,0)"/>
<path d="" fill="#4F4E4D" transform="translate(0,0)"/>
<path d="" fill="#4C4E4B" transform="translate(0,0)"/>
<path d="" fill="#474343" transform="translate(0,0)"/>
<path d="" fill="#494A47" transform="translate(0,0)"/>
<path d="" fill="#494546" transform="translate(0,0)"/>
<path d="" fill="#464545" transform="translate(0,0)"/>
<path d="" fill="#494646" transform="translate(0,0)"/>
<path d="" fill="#484947" transform="translate(0,0)"/>
<path d="" fill="#535251" transform="translate(0,0)"/>
<path d="" fill="#464747" transform="translate(0,0)"/>
<path d="" fill="#4E4E4D" transform="translate(0,0)"/>
<path d="" fill="#4D4C4C" transform="translate(0,0)"/>
<path d="" fill="#4C4B49" transform="translate(0,0)"/>
<path d="" fill="#4F4C4D" transform="translate(0,0)"/>
<path d="" fill="#4D4948" transform="translate(0,0)"/>
<path d="" fill="#4A4747" transform="translate(0,0)"/>
<path d="" fill="#484444" transform="translate(0,0)"/>
<path d="" fill="#4A4849" transform="translate(0,0)"/>
<path d="" fill="#4C4B49" transform="translate(0,0)"/>
<path d="" fill="#494645" transform="translate(0,0)"/>
<path d="" fill="#474747" transform="translate(0,0)"/>
<path d="" fill="#4C4B47" transform="translate(0,0)"/>
<path d="" fill="#4E4D4C" transform="translate(0,0)"/>
<path d="" fill="#494746" transform="translate(0,0)"/>
<path d="" fill="#494848" transform="translate(0,0)"/>
<path d="" fill="#4D4C4C" transform="translate(0,0)"/>
<path d="" fill="#4B4B4A" transform="translate(0,0)"/>
<path d="" fill="#4A4C49" transform="translate(0,0)"/>
<path d="" fill="#4C4A49" transform="translate(0,0)"/>
<path d="" fill="#494847" transform="translate(0,0)"/>
<path d="" fill="#4D4C4A" transform="translate(0,0)"/>
<path d="" fill="#53514E" transform="translate(0,0)"/>
<path d="" fill="#5C5C5B" transform="translate(0,0)"/>
</svg>
