<svg width="363" height="103" viewBox="0 0 363 103" fill="none" xmlns="http://www.w3.org/2000/svg">
<path d="M114.692 0.915618H115.225C118.25 0.915618 121.275 0.911764 124.3 0.91727C125.607 0.920022 126.87 1.13804 128.069 1.69022C129.837 2.50447 131.041 3.82191 131.613 5.67557C132.211 7.61126 132.213 9.553 131.375 11.4221C130.305 13.8059 128.331 15.0705 125.834 15.506C124.664 15.7102 123.449 15.6744 122.252 15.7141C121.359 15.7438 120.465 15.7201 119.511 15.7201V24.7677H114.692V0.915618ZM119.541 11.3923C121.233 11.3923 122.895 11.4353 124.554 11.3747C125.431 11.3428 126.241 10.9833 126.838 10.3023C127.712 9.30691 127.862 8.16014 127.359 6.95942C126.843 5.72787 125.817 5.15696 124.531 5.08979C123.415 5.03144 122.293 5.07548 121.174 5.07438C120.636 5.07438 120.098 5.07438 119.541 5.07438V11.3918V11.3923Z" fill="black"/>
<path d="M150.492 17.1574C148.208 17.1574 145.985 17.1574 143.761 17.1574C141.538 17.1574 139.349 17.1574 137.144 17.1574C137.095 18.7936 138.339 20.334 140.093 20.7931C142.251 21.3585 144.103 20.8482 145.591 19.1514C145.633 19.1035 145.675 19.054 145.72 19.0099C145.742 18.9885 145.774 18.9769 145.85 18.9329C146.943 19.7091 148.055 20.498 149.202 21.3123C148.167 22.698 146.924 23.7616 145.372 24.4481C139.646 26.9817 133.21 23.3526 132.428 17.1475C132.043 14.0925 132.743 11.3338 134.848 9.0375C136.963 6.7313 139.652 5.87301 142.737 6.19177C145.284 6.45493 147.377 7.55655 148.879 9.65245C150.488 11.8992 150.899 14.4196 150.492 17.1563V17.1574ZM146.172 13.7308C145.646 11.3569 143.804 10.0307 141.282 10.154C139.307 10.2509 137.502 11.8541 137.285 13.7308H146.172Z" fill="black"/>
<path d="M238.605 25.2306C233.005 25.2268 228.992 21.2183 228.996 15.6309C229 10.196 233.16 6.12365 238.701 6.13136C244.2 6.13907 248.316 10.3011 248.308 15.8489C248.301 21.221 244.15 25.2339 238.605 25.2306ZM238.589 21.0052C241.537 21.0135 243.755 18.7783 243.782 15.7718C243.809 12.7026 241.603 10.3655 238.666 10.3523C235.683 10.3386 233.486 12.5837 233.459 15.6727C233.433 18.7161 235.627 20.997 238.59 21.0058L238.589 21.0052Z" fill="black"/>
<path d="M190.813 25.2306C185.224 25.2246 181.157 21.1974 181.177 15.6892C181.197 10.1673 185.298 6.12475 190.872 6.13136C196.367 6.13796 200.445 10.2499 200.433 15.774C200.421 21.2276 196.344 25.2367 190.814 25.2306H190.813ZM190.775 21.0052C193.797 21.008 195.945 18.8246 195.951 15.7476C195.956 12.6734 193.746 10.3518 190.813 10.3523C187.89 10.3523 185.668 12.6519 185.659 15.6865C185.651 18.7811 187.788 21.003 190.775 21.0058V21.0052Z" fill="black"/>
<path d="M218.236 24.8411H213.773V24.2102C213.773 20.3295 213.773 16.4493 213.773 12.5686C213.773 10.8977 213.389 10.5156 211.711 10.5156C210.639 10.5156 209.566 10.5123 208.494 10.5167C207.294 10.5211 206.799 11.0083 206.798 12.1997C206.795 16.2082 206.797 20.2166 206.797 24.2245V24.8296H202.315C202.315 24.6374 202.315 24.4668 202.315 24.2956C202.315 20.0955 202.311 15.8955 202.316 11.6954C202.319 8.63276 204.618 6.34528 207.688 6.34087C209.385 6.33867 211.081 6.33977 212.778 6.34087C215.978 6.34197 218.236 8.59918 218.236 11.7978C218.236 15.95 218.236 20.1021 218.236 24.2537V24.8417V24.8411Z" fill="black"/>
<path d="M163.876 19.2059H168.402C168.888 20.988 169.684 21.6431 171.544 21.6574C172.298 21.6635 173.075 21.5666 173.803 21.3723C174.642 21.1482 175.053 20.4743 175.05 19.6474C175.047 18.8425 174.687 18.2584 173.831 18.0151C172.807 17.7239 171.75 17.5444 170.699 17.355C169.327 17.1073 167.987 16.7879 166.74 16.1267C163.774 14.555 163.767 10.8818 165.281 8.89268C166.451 7.35558 168.081 6.6041 169.931 6.28809C172.22 5.89666 174.436 6.13944 176.469 7.32145C178.2 8.32783 179.167 9.84456 179.282 11.9151H174.861C174.536 10.1782 173.474 9.73225 171.991 9.69481C171.36 9.67885 170.711 9.74987 170.096 9.89246C169.325 10.0714 168.904 10.6148 168.852 11.2947C168.785 12.1645 169.047 12.7866 169.838 13.0713C170.684 13.3757 171.587 13.5436 172.478 13.6972C174.068 13.9714 175.666 14.1933 177.112 14.9833C179.077 16.0568 179.74 17.8488 179.464 19.904C179.104 22.5917 177.381 24.1068 174.903 24.8082C172.083 25.6065 169.324 25.4149 166.77 23.8535C165.175 22.8785 164.203 21.4438 163.879 19.5924C163.86 19.485 163.877 19.3716 163.877 19.2059H163.876Z" fill="black"/>
<path d="M162.966 6.36167V10.5155C162.699 10.5155 162.433 10.5155 162.167 10.5155C161.095 10.5155 160.022 10.5122 158.95 10.5166C157.741 10.5215 157.231 11.0264 157.23 12.2409C157.226 16.2493 157.229 20.2572 157.229 24.2657C157.229 24.4391 157.229 24.6131 157.229 24.8272H152.784V24.3285C152.784 20.0965 152.779 15.865 152.786 11.6331C152.791 8.61887 155.074 6.35176 158.102 6.34075C159.575 6.33524 161.048 6.3391 162.521 6.34075C162.661 6.34075 162.801 6.35341 162.966 6.36112V6.36167Z" fill="black"/>
<path d="M226.298 24.8413H221.741V8.74194H226.298V24.8413Z" fill="black"/>
<path d="M224.011 5.95241C222.312 5.95957 221.021 4.68342 221.028 3.00539C221.036 1.35157 222.373 -0.0016501 223.997 1.51025e-06C225.652 0.00165312 227.012 1.35983 227.016 3.0153C227.02 4.66361 225.71 5.94526 224.011 5.95241Z" fill="black"/>
<path d="M15.3621 92.2688V42.8087H47.0303V50.4338H24.0176V64.3101H43.046V71.9352H24.0176V92.2688H15.3621ZM65.071 92.9557C54.6981 92.9557 47.073 85.3993 47.073 75.0951C47.073 64.791 54.6981 57.2345 65.071 57.2345C75.5125 57.2345 83.1376 64.791 83.1376 75.0951C83.1376 85.3993 75.5125 92.9557 65.071 92.9557ZM65.071 86.155C70.7726 86.155 74.5508 81.5524 74.5508 75.0951C74.5508 68.6379 70.7726 64.0353 65.071 64.0353C59.438 64.0353 55.5911 68.6379 55.5911 75.0951C55.5911 81.5524 59.438 86.155 65.071 86.155ZM99.7733 92.9557C96.2012 92.9557 93.1786 91.5819 91.1178 89.3836C88.9196 87.048 87.6831 83.7507 87.6831 78.5299V57.9215H95.9264V77.7055C95.9264 80.522 96.6134 82.5142 97.7812 83.7507C98.8803 85.0559 100.598 85.7428 102.452 85.7428C107.124 85.7428 109.734 82.102 109.734 76.263V57.9215H117.977V92.2688H110.009V86.7732C107.948 90.8262 104.376 92.9557 99.7733 92.9557ZM125.111 92.2688V57.9215H133.08V63.0736C135.072 59.4328 138.85 57.2345 143.521 57.2345C147.162 57.2345 150.185 58.6084 152.314 60.8754C154.444 63.1423 155.749 66.4396 155.749 70.8361V92.2688H147.506V72.0726C147.506 69.6683 146.887 67.6761 145.72 66.4396C144.552 65.1344 142.903 64.4475 140.842 64.4475C136.308 64.4475 133.355 67.8822 133.355 73.103V92.2688H125.111ZM175.927 92.8871C166.928 92.8871 160.402 85.1933 160.402 75.0951C160.402 64.997 166.928 57.3032 175.927 57.3032C180.941 57.3032 185.063 59.5702 187.33 63.2797V42.8087H195.436V92.2688H187.467V86.6358C185.269 90.5514 181.01 92.8871 175.927 92.8871ZM178.194 86.155C183.895 86.155 187.536 81.4837 187.536 75.0951C187.536 68.7065 183.895 64.0353 178.194 64.0353C172.561 64.0353 168.92 68.7065 168.92 75.0951C168.92 81.4837 172.561 86.155 178.194 86.155ZM216.029 92.8871C207.03 92.8871 200.504 85.1933 200.504 75.0951C200.504 64.997 207.03 57.3032 216.029 57.3032C221.112 57.3032 225.371 59.6389 227.569 63.5545V57.9215H235.538V86.2924C235.538 88.5593 235.675 90.414 235.95 92.2688H227.913C227.638 90.5514 227.501 88.8341 227.501 86.7732C225.302 90.5514 221.112 92.8871 216.029 92.8871ZM218.295 86.155C223.997 86.155 227.638 81.4837 227.638 75.0951C227.638 68.7065 223.997 64.0353 218.295 64.0353C212.663 64.0353 209.022 68.7065 209.022 75.0951C209.022 81.4837 212.663 86.155 218.295 86.155ZM255.031 92.681C251.665 92.681 249.055 91.9253 247.406 90.2767C245.689 88.6967 245.002 86.4985 245.002 83.2011V64.791H239.506V57.9215H245.002V49.4034H253.245V57.9215H259.29V64.791H253.245V81.8959C253.245 83.1324 253.451 83.9568 254.07 84.5063C254.688 85.1246 255.65 85.3993 257.023 85.3993C257.779 85.3993 258.535 85.3306 259.29 85.1246V92.2688C258.26 92.4749 256.611 92.681 255.031 92.681ZM264.119 92.2688V57.9215H272.362V92.2688H264.119ZM268.24 53.1816C265.286 53.1816 263.02 50.9833 263.02 48.0295C263.02 45.0756 265.286 42.8774 268.24 42.8774C271.194 42.8774 273.392 45.0756 273.392 48.0295C273.392 50.9833 271.194 53.1816 268.24 53.1816ZM295.403 92.9557C285.031 92.9557 277.405 85.3993 277.405 75.0951C277.405 64.791 285.031 57.2345 295.403 57.2345C305.845 57.2345 313.47 64.791 313.47 75.0951C313.47 85.3993 305.845 92.9557 295.403 92.9557ZM295.403 86.155C301.105 86.155 304.883 81.5524 304.883 75.0951C304.883 68.6379 301.105 64.0353 295.403 64.0353C289.77 64.0353 285.924 68.6379 285.924 75.0951C285.924 81.5524 289.77 86.155 295.403 86.155ZM318.428 92.2688V57.9215H326.396V63.0736C328.388 59.4328 332.167 57.2345 336.838 57.2345C340.479 57.2345 343.501 58.6084 345.631 60.8754C347.76 63.1423 349.065 66.4396 349.065 70.8361V92.2688H340.822V72.0726C340.822 69.6683 340.204 67.6761 339.036 66.4396C337.868 65.1344 336.22 64.4475 334.159 64.4475C329.625 64.4475 326.671 67.8822 326.671 73.103V92.2688H318.428Z" fill="black"/>
</svg>
