<?xml version="1.0" standalone="no"?>
<!DOCTYPE svg PUBLIC "-//W3C//DTD SVG 20010904//EN"
 "http://www.w3.org/TR/2001/REC-SVG-20010904/DTD/svg10.dtd">
<svg version="1.0" xmlns="http://www.w3.org/2000/svg"
 width="1024.000000pt" height="1024.000000pt" viewBox="0 0 1024.000000 1024.000000"
 preserveAspectRatio="xMidYMid meet">

<g transform="translate(0.000000,1024.000000) scale(0.100000,-0.100000)"
fill="#000000" stroke="none">
<path d="M4885 9603 c-834 -100 -1542 -613 -1875 -1360 -63 -142 -119 -305
-163 -478 -62 -241 -87 -419 -122 -880 -46 -599 -107 -1001 -220 -1440 -46
-179 -64 -289 -71 -430 -15 -285 70 -556 247 -784 162 -211 385 -362 684 -465
15 -5 -4 -16 -77 -46 -247 -99 -513 -293 -677 -494 -271 -331 -402 -759 -480
-1566 -26 -268 -42 -504 -44 -665 -2 -124 -1 -133 27 -193 40 -86 112 -151
200 -180 l66 -22 2874 0 c2799 0 2876 1 2935 19 139 43 230 156 239 297 7 114
-29 670 -63 960 -39 334 -110 668 -185 869 -131 352 -338 615 -645 818 -96 63
-282 157 -353 178 -23 7 -39 15 -35 19 4 4 37 17 73 30 153 54 354 178 480
296 180 170 303 383 357 617 23 102 23 359 -1 492 -10 55 -44 206 -77 335
-117 474 -161 773 -224 1530 -29 342 -82 620 -169 885 -169 511 -435 890 -838
1195 -345 261 -738 411 -1223 465 -163 18 -480 18 -640 -2z m724 -288 c510
-80 953 -310 1252 -648 320 -362 514 -824 598 -1428 22 -158 48 -476 39 -484
-3 -3 -28 6 -55 20 -51 25 -148 51 -213 57 l-35 3 -6 120 c-10 196 -18 207
-278 365 -156 94 -279 185 -406 298 -233 209 -458 526 -580 817 -51 121 -71
149 -122 165 -80 27 -131 -12 -208 -156 -199 -377 -555 -704 -987 -908 -226
-107 -465 -179 -866 -261 -281 -57 -328 -72 -373 -122 -49 -52 -62 -91 -68
-208 l-6 -110 -70 -8 c-78 -8 -152 -30 -202 -59 l-33 -20 0 64 c0 98 37 469
60 603 95 551 290 967 605 1294 339 352 764 552 1315 620 114 15 516 6 639
-14z m191 -1257 c108 -190 261 -390 425 -553 168 -168 272 -247 607 -460 91
-58 89 -50 90 -475 1 -278 -3 -383 -16 -485 -37 -286 -89 -465 -196 -680 -88
-176 -191 -316 -340 -458 -243 -233 -517 -371 -845 -427 -113 -19 -154 -22
-310 -17 -197 6 -310 25 -470 78 -535 178 -962 648 -1106 1218 -54 212 -63
317 -64 732 0 306 3 381 14 402 17 32 53 44 266 88 435 89 730 185 995 326
318 167 593 401 796 673 53 71 98 130 99 130 2 0 26 -42 55 -92z m-2497 -1760
c4 -154 12 -298 21 -348 8 -47 17 -105 22 -129 l7 -44 -63 7 c-164 19 -284
108 -341 253 -30 79 -32 205 -4 282 38 102 143 193 265 227 95 26 87 49 93
-248z m3989 241 c170 -57 278 -198 278 -363 0 -139 -88 -284 -210 -346 -50
-26 -143 -50 -191 -50 l-37 0 14 63 c26 126 45 342 45 528 0 217 -7 205 101
168z m422 -1064 c68 -280 81 -362 81 -525 0 -172 -16 -250 -80 -385 -51 -108
-110 -188 -207 -281 -170 -161 -414 -277 -685 -324 -144 -25 -154 -25 -261 1
-262 63 -374 181 -388 409 l-6 85 67 38 c221 128 459 357 620 597 61 91 177
315 195 378 l12 38 96 -4 c168 -6 311 50 429 166 l58 58 13 -36 c7 -19 32
-116 56 -215z m-4798 176 c119 -108 257 -157 425 -148 l96 5 23 -57 c154 -376
455 -738 793 -950 77 -49 76 -46 53 -178 -21 -117 -49 -175 -113 -233 -65 -59
-149 -101 -260 -129 -103 -26 -115 -26 -265 4 -493 98 -826 371 -935 767 -29
102 -23 375 10 543 30 148 99 435 105 435 2 0 33 -26 68 -59z m1796 -1351
c289 -86 616 -102 908 -44 64 13 209 53 254 70 10 4 17 -12 25 -61 40 -226
134 -373 299 -466 31 -18 59 -34 61 -36 3 -2 -24 -33 -60 -69 -177 -180 -368
-290 -619 -356 -153 -40 -399 -50 -561 -23 -198 32 -407 116 -559 223 -71 49
-230 205 -230 225 0 7 27 27 59 44 164 90 260 236 293 442 7 45 16 81 21 81 4
0 53 -14 109 -30z m-707 -726 c110 -137 314 -296 498 -387 116 -58 298 -118
432 -143 141 -27 458 -27 600 0 366 68 706 256 936 518 40 46 78 84 85 86 17
4 241 -53 354 -90 184 -60 397 -161 500 -237 317 -231 485 -504 595 -965 71
-296 127 -782 142 -1232 l6 -190 -28 -22 c-27 -22 -33 -22 -360 -22 l-332 0
-7 53 c-3 28 -6 98 -6 154 0 336 -77 1302 -109 1360 -36 68 -134 94 -199 53
-62 -38 -67 -70 -43 -260 26 -211 48 -439 61 -655 17 -272 30 -699 22 -707 -4
-4 -860 -7 -1902 -5 l-1895 2 -3 185 c-5 303 24 854 64 1203 18 154 14 174
-37 223 -26 25 -38 29 -89 29 -51 0 -63 -4 -89 -29 -40 -38 -47 -64 -65 -231
-39 -364 -56 -694 -56 -1082 l0 -293 -340 0 c-423 0 -386 -18 -376 186 18 387
65 845 117 1129 64 346 170 626 310 813 153 206 429 397 739 512 94 35 376
119 400 119 8 0 42 -34 75 -75z"/>
<path d="M4427 6726 c-93 -26 -159 -117 -160 -221 0 -149 99 -242 250 -233 83
5 134 35 178 105 26 42 30 57 30 124 0 67 -4 81 -30 125 -56 90 -162 130 -268
100z"/>
<path d="M5970 6731 c-148 -30 -224 -198 -154 -339 39 -78 98 -116 191 -120
63 -4 77 -1 122 24 99 53 143 171 107 282 -24 70 -97 136 -167 151 -27 6 -53
10 -57 10 -4 -1 -23 -4 -42 -8z"/>
<path d="M4833 5479 c-49 -6 -80 -30 -99 -76 -30 -71 -6 -161 53 -195 26 -16
70 -18 456 -18 466 -1 469 0 511 57 28 38 32 119 9 163 -37 71 -34 71 -485 73
-222 1 -422 -1 -445 -4z"/>
</g>
</svg>
