<?xml version="1.0" standalone="no"?>
<!DOCTYPE svg PUBLIC "-//W3C//DTD SVG 20010904//EN"
 "http://www.w3.org/TR/2001/REC-SVG-20010904/DTD/svg10.dtd">
<svg version="1.0" xmlns="http://www.w3.org/2000/svg"
 width="1024.000000pt" height="1024.000000pt" viewBox="0 0 1024.000000 1024.000000"
 preserveAspectRatio="xMidYMid meet">

<g transform="translate(0.000000,1024.000000) scale(0.100000,-0.100000)"
fill="#000000" stroke="none">
<path d="M5480 9620 c-128 -13 -255 -37 -402 -74 -758 -192 -1392 -773 -1652
-1516 -107 -305 -149 -547 -196 -1130 -56 -689 -93 -968 -199 -1482 -38 -182
-71 -443 -71 -559 0 -530 285 -943 797 -1155 l92 -38 -47 -21 c-319 -137 -625
-411 -799 -712 -26 -46 -54 -92 -61 -101 -12 -15 -13 -14 -8 8 4 14 9 138 12
275 6 224 4 263 -14 375 -38 228 -95 391 -223 636 -163 311 -179 373 -189 704
-10 311 -27 369 -134 468 -81 73 -145 96 -276 96 -98 1 -109 -1 -173 -31 -222
-105 -323 -357 -288 -713 13 -123 50 -304 81 -396 11 -32 20 -59 20 -61 0 -1
-144 -3 -319 -3 -355 0 -390 -5 -490 -70 -182 -116 -236 -372 -116 -549 l34
-52 -33 -44 c-53 -69 -71 -127 -71 -231 0 -84 2 -95 38 -167 21 -42 49 -85 63
-96 l26 -20 -31 -63 c-88 -178 -45 -387 101 -494 l48 -36 0 -78 c0 -139 51
-253 154 -347 89 -81 175 -115 330 -129 l78 -7 -6 -91 c-61 -885 -61 -879 -24
-958 32 -70 96 -133 168 -167 l55 -26 3460 -3 c3779 -2 3527 -6 3617 53 87 58
147 152 155 244 8 98 -55 821 -103 1171 -103 754 -366 1189 -924 1525 -60 36
-132 76 -161 89 l-52 22 64 23 c376 137 678 442 777 786 42 144 47 187 47 380
-1 204 -6 240 -71 545 -103 482 -151 837 -199 1475 -42 558 -89 829 -201 1147
-77 217 -218 480 -362 670 -92 123 -276 316 -387 405 -276 223 -623 390 -971
468 -211 47 -304 57 -599 60 -154 2 -318 0 -365 -5z m625 -291 c362 -40 689
-158 970 -347 516 -348 830 -871 945 -1574 19 -117 60 -546 60 -629 l0 -39
-60 30 c-63 32 -164 60 -217 60 l-33 0 0 114 c0 120 -10 167 -44 204 -11 13
-77 52 -146 86 -254 126 -463 292 -669 531 -174 201 -335 469 -421 698 -41
110 -78 147 -146 147 -77 0 -121 -34 -155 -119 -86 -212 -331 -509 -570 -688
-352 -264 -822 -457 -1354 -558 -99 -18 -211 -37 -250 -40 -79 -8 -108 -21
-148 -62 -37 -39 -47 -77 -54 -204 l-6 -107 -58 -6 c-62 -7 -143 -32 -199 -61
l-33 -17 7 143 c33 665 139 1078 376 1460 112 180 284 377 447 511 185 151
440 291 670 367 313 103 723 141 1088 100z m267 -1291 c223 -418 620 -820
1021 -1033 l87 -47 0 -376 c0 -410 -8 -539 -46 -735 -85 -440 -333 -835 -676
-1080 -311 -222 -674 -332 -1037 -314 -152 8 -275 29 -396 67 -269 87 -469
206 -668 399 -302 292 -472 635 -534 1076 -14 96 -17 200 -18 525 l0 405 60
11 c33 6 103 19 155 29 264 49 625 155 844 250 463 199 852 493 1108 837 28
38 52 68 54 68 1 0 22 -37 46 -82z m-2559 -1725 c5 -179 12 -259 31 -373 14
-80 29 -156 32 -169 7 -23 6 -23 -47 -16 -107 15 -190 57 -258 130 -171 185
-127 504 84 612 59 30 90 41 126 42 l26 1 6 -227z m4099 195 c113 -52 185
-149 209 -282 41 -220 -127 -443 -355 -471 l-59 -8 8 29 c35 133 47 251 52
503 l5 263 43 -4 c23 -3 67 -17 97 -30z m-4341 -973 c96 -49 166 -65 284 -65
l101 0 38 -89 c155 -368 481 -744 811 -937 l65 -38 0 -96 c0 -120 -19 -208
-54 -259 -34 -49 -139 -105 -276 -149 -172 -55 -198 -57 -339 -33 -483 83
-832 347 -921 698 -54 208 -45 405 37 822 l58 299 63 -59 c35 -33 94 -75 133
-94z m4693 -105 c78 -356 81 -375 81 -570 -1 -191 -11 -251 -65 -386 -115
-287 -434 -521 -815 -599 -115 -23 -225 -22 -315 3 -97 27 -245 79 -290 102
-46 24 -95 76 -114 121 -26 63 -49 309 -28 309 16 0 149 84 239 152 172 128
371 348 492 542 44 70 120 222 158 314 l22 52 93 0 c155 0 270 38 386 125 35
26 71 59 80 73 9 13 17 21 19 16 1 -5 27 -119 57 -254z m-6096 -330 c54 -33
62 -67 62 -267 0 -339 29 -450 201 -788 138 -271 177 -370 210 -528 27 -130
35 -346 20 -533 -16 -208 -2 -414 74 -1029 25 -198 63 -511 85 -696 22 -185
43 -350 46 -367 l7 -32 -531 0 c-446 0 -531 2 -541 14 -9 11 -5 118 20 473 18
252 33 459 34 461 1 1 28 7 59 12 153 25 271 125 311 265 22 76 16 193 -13
254 l-21 42 41 37 c22 20 51 53 63 72 84 133 69 335 -32 442 l-25 26 35 35
c19 20 48 62 63 94 26 51 29 69 29 148 0 75 -5 99 -26 145 -14 31 -41 73 -58
93 l-33 37 41 46 c63 72 84 139 79 254 -4 74 -10 107 -30 151 -45 99 -138 183
-241 218 l-52 18 -33 108 c-90 297 -104 572 -37 704 50 100 123 134 193 91z
m4282 -913 c24 -212 116 -363 274 -452 l66 -37 -52 -60 c-123 -142 -320 -267
-514 -328 -189 -58 -479 -77 -675 -44 -264 45 -497 163 -666 337 -46 46 -83
89 -83 94 0 5 15 14 34 21 72 26 153 89 201 157 61 85 92 171 107 293 6 53 13
98 14 100 1 2 37 -8 81 -21 268 -85 578 -107 848 -61 84 14 268 61 325 82 14
5 26 9 28 7 1 -1 7 -41 12 -88z m-4425 -291 c46 -20 69 -65 62 -130 -3 -38
-11 -55 -31 -73 l-27 -23 -459 0 -460 0 -31 28 c-43 39 -52 113 -18 156 43 55
48 55 507 56 343 0 429 -3 457 -14z m5224 -346 c337 -112 520 -196 685 -314
376 -269 572 -616 656 -1157 28 -186 52 -393 75 -659 36 -428 41 -526 25 -545
-11 -13 -61 -15 -371 -15 l-359 0 0 68 c0 198 -26 776 -45 987 -2 28 -7 91
-10 140 -8 113 -19 148 -56 179 -59 50 -154 43 -203 -15 -32 -37 -33 -71 -12
-334 8 -99 22 -322 30 -495 9 -173 18 -363 21 -423 l6 -107 -1910 0 -1911 0 0
126 c0 204 29 666 61 984 44 436 44 420 21 459 -34 63 -114 87 -186 57 -70
-29 -83 -71 -111 -353 -32 -323 -56 -692 -62 -975 l-6 -298 -213 0 c-213 0
-214 0 -219 23 -2 12 -21 159 -40 327 -20 168 -47 395 -60 505 -13 110 -32
270 -41 355 l-16 155 47 135 c104 303 234 519 425 711 158 159 327 268 575
372 76 32 448 157 466 157 8 0 27 -21 44 -48 16 -26 66 -85 110 -131 232 -243
534 -396 877 -447 136 -20 425 -15 558 10 317 59 599 203 802 410 40 40 93
105 118 144 25 39 46 71 48 71 1 1 83 -26 181 -59z m-5229 -198 c76 -37 88
-136 24 -200 l-33 -33 -455 3 -456 3 -31 32 c-25 24 -33 42 -36 80 -5 43 -2
53 23 82 15 18 37 37 48 41 12 5 215 9 451 9 390 1 433 -1 465 -17z m-41 -518
c42 -9 89 -56 97 -99 9 -47 -12 -101 -49 -127 -32 -23 -36 -23 -412 -26 -209
-2 -399 0 -423 3 -27 4 -55 17 -75 35 -29 26 -32 34 -32 88 0 51 4 65 25 87
14 15 34 31 45 35 23 10 777 13 824 4z m-80 -547 c35 -17 65 -71 57 -102 -4
-14 -19 -40 -35 -58 l-29 -32 -224 0 -223 0 -53 29 c-59 33 -112 103 -112 148
l0 28 298 0 c216 0 304 -4 321 -13z"/>
<path d="M4839 6758 c-151 -53 -252 -177 -273 -334 -14 -99 29 -175 109 -190
78 -14 145 37 164 128 15 68 50 112 106 134 38 14 52 15 84 5 49 -14 98 -69
106 -118 10 -60 25 -92 57 -118 62 -52 148 -37 196 35 21 31 23 44 20 106 -9
142 -93 266 -225 331 -67 33 -82 37 -176 40 -87 3 -112 0 -168 -19z"/>
<path d="M6446 6760 c-70 -22 -155 -78 -191 -126 -55 -72 -79 -142 -80 -231 0
-67 4 -86 21 -110 30 -41 81 -65 127 -59 71 8 102 44 127 144 21 84 101 142
175 128 19 -4 50 -21 69 -39 31 -30 40 -49 61 -141 8 -38 58 -84 100 -92 46
-8 99 11 129 47 80 95 14 312 -127 415 -110 81 -276 107 -411 64z"/>
<path d="M5114 5624 c-63 -31 -84 -126 -45 -202 47 -93 174 -201 312 -267 296
-140 684 -115 945 63 72 48 191 172 210 218 45 108 -19 204 -135 204 l-52 0
-92 -93 c-141 -143 -275 -201 -462 -200 -191 1 -378 83 -475 209 -24 30 -56
62 -71 70 -36 18 -96 18 -135 -2z"/>
</g>
</svg>
