<?xml version="1.0" standalone="no"?>
<!DOCTYPE svg PUBLIC "-//W3C//DTD SVG 20010904//EN"
 "http://www.w3.org/TR/2001/REC-SVG-20010904/DTD/svg10.dtd">
<svg version="1.0" xmlns="http://www.w3.org/2000/svg"
 width="1024.000000pt" height="1024.000000pt" viewBox="0 0 1024.000000 1024.000000"
 preserveAspectRatio="xMidYMid meet">

<g transform="translate(0.000000,1024.000000) scale(0.100000,-0.100000)"
fill="#000000" stroke="none">
<path d="M4870 9525 c-394 -49 -764 -182 -1065 -383 -502 -334 -871 -876
-1025 -1505 -41 -165 -66 -341 -90 -632 -57 -689 -97 -1012 -165 -1351 -41
-204 -135 -605 -144 -616 -4 -4 -24 4 -45 18 -82 56 -245 104 -352 104 -84 0
-197 -29 -294 -77 -216 -105 -355 -321 -366 -568 l-3 -80 -58 -34 c-93 -55
-185 -157 -238 -264 -102 -206 -98 -418 10 -614 107 -193 331 -322 557 -323
l66 0 37 -50 c120 -163 323 -260 515 -246 65 4 151 25 212 51 12 5 5 -12 -21
-52 -133 -198 -234 -488 -295 -843 -49 -288 -93 -868 -84 -1122 3 -106 6 -117
38 -176 41 -77 104 -135 176 -162 55 -20 63 -20 2959 -20 l2904 0 55 21 c73
27 145 93 181 166 26 51 30 71 33 168 5 130 -13 525 -34 752 -49 532 -168 951
-345 1217 -21 32 -39 60 -39 62 0 3 18 -5 41 -16 47 -25 169 -50 238 -50 68 0
192 34 264 72 67 36 184 140 218 194 20 34 22 34 92 34 100 0 196 23 286 67
106 52 232 177 284 283 94 195 89 402 -15 603 -49 94 -151 203 -236 252 l-52
30 0 62 c0 94 -26 199 -72 293 -59 121 -178 241 -298 298 -158 76 -318 89
-477 41 -67 -21 -162 -67 -195 -97 -22 -18 -15 -39 -77 228 -121 523 -178 887
-226 1455 -52 616 -69 749 -130 981 -115 439 -321 812 -624 1127 -190 196
-386 339 -636 462 -235 116 -453 184 -729 227 -175 27 -569 34 -736 13z m690
-280 c250 -39 449 -99 655 -200 648 -315 1096 -972 1189 -1745 9 -69 25 -233
36 -365 11 -132 23 -263 26 -292 l6 -52 -53 29 c-59 31 -144 58 -217 69 l-47
6 0 181 c0 206 -2 213 -82 259 -210 122 -415 285 -639 509 -261 261 -332 357
-469 631 -88 175 -115 205 -185 205 -55 0 -98 -35 -152 -123 -75 -123 -154
-222 -282 -354 -200 -208 -397 -350 -682 -495 -189 -96 -337 -156 -529 -217
-165 -52 -458 -123 -645 -157 -230 -41 -237 -50 -245 -285 l-5 -154 -53 -7
c-65 -8 -134 -31 -210 -70 l-59 -29 6 53 c4 29 18 190 31 358 34 410 61 560
146 806 166 484 488 895 894 1144 95 58 312 161 410 195 169 57 318 88 565
119 82 10 489 -3 590 -19z m253 -1248 c146 -251 384 -523 662 -756 103 -86
362 -275 403 -294 l24 -11 -5 -510 c-4 -556 -8 -602 -67 -821 -130 -489 -452
-909 -862 -1125 -360 -190 -785 -238 -1183 -135 -294 77 -517 206 -740 430
-156 155 -241 272 -335 458 -112 224 -176 449 -200 712 -5 61 -10 295 -10 520
l0 411 123 22 c180 33 502 115 662 168 365 120 668 276 955 491 127 95 410
372 475 466 22 31 42 57 45 57 3 0 27 -37 53 -83z m-2572 -1699 c-2 -181 15
-459 33 -563 8 -44 13 -81 13 -81 -1 -1 -28 2 -59 6 -253 35 -401 295 -308
542 25 67 93 147 157 184 42 25 154 66 162 59 1 -2 2 -68 2 -147z m4046 106
c83 -40 142 -100 181 -184 23 -48 26 -69 26 -160 0 -87 -4 -115 -22 -162 -47
-118 -173 -217 -302 -237 -30 -5 -56 -8 -56 -7 -1 0 5 37 13 81 10 54 16 183
20 398 l5 318 32 -6 c17 -3 63 -22 103 -41z m-4304 -927 c91 -45 171 -65 285
-73 l90 -7 27 -76 c62 -173 191 -398 322 -561 115 -142 317 -327 466 -425 l57
-38 0 -102 c0 -114 -15 -177 -56 -236 -34 -49 -65 -68 -238 -146 -132 -60
-144 -63 -217 -63 -90 0 -227 22 -312 51 -34 12 -63 22 -65 23 -1 2 5 20 13
40 22 51 11 99 -30 135 -59 52 -64 51 -380 -59 -361 -125 -388 -136 -415 -165
-30 -32 -37 -94 -16 -146 23 -56 22 -172 0 -230 -53 -136 -167 -226 -299 -236
-70 -6 -156 15 -214 51 -50 32 -109 99 -130 149 -10 23 -31 53 -46 67 -26 24
-31 25 -147 22 -224 -5 -349 60 -430 225 -29 60 -32 74 -32 157 0 108 24 179
85 256 50 64 106 104 181 131 61 23 103 61 114 105 4 14 1 59 -5 99 -35 215
102 414 318 465 161 38 355 -58 431 -214 24 -49 32 -82 39 -160 9 -109 24
-140 82 -168 35 -17 575 -96 724 -105 76 -5 82 -4 112 21 38 32 57 85 49 131
-8 39 -61 90 -103 99 -35 7 -275 40 -443 61 -183 23 -165 13 -180 100 -22 130
-4 262 94 665 24 102 50 213 56 247 l13 62 64 -58 c35 -33 96 -75 136 -94z
m4676 -89 c115 -494 134 -626 109 -748 l-14 -65 -284 -38 c-157 -21 -302 -42
-324 -48 -47 -13 -83 -50 -92 -95 -9 -49 2 -82 41 -121 28 -28 40 -33 82 -33
48 0 483 56 667 85 139 23 160 46 168 186 5 69 12 99 37 152 58 122 173 207
308 230 114 20 237 -22 327 -110 61 -61 91 -112 112 -192 14 -56 14 -77 4
-160 -11 -84 -11 -101 3 -126 21 -42 46 -62 97 -80 204 -72 323 -292 265 -490
-33 -117 -100 -195 -215 -249 -63 -30 -70 -31 -200 -31 -163 0 -183 -8 -231
-98 -39 -74 -95 -128 -167 -164 -49 -24 -69 -28 -142 -28 -71 0 -94 4 -141 26
-77 36 -130 87 -169 161 -42 78 -52 187 -26 264 26 78 17 133 -30 175 -21 19
-668 249 -699 249 -28 0 -81 -34 -100 -64 -17 -26 -18 -101 -1 -137 5 -13 -6
-20 -56 -37 -96 -31 -221 -52 -314 -52 -82 0 -86 1 -236 70 -226 104 -262 150
-274 360 l-7 106 86 58 c338 227 611 571 762 957 l37 96 92 6 c165 12 297 65
401 161 33 30 62 55 65 56 3 0 29 -105 59 -232z m-3055 -1254 c223 -74 399
-99 658 -91 212 5 337 26 520 88 65 21 119 39 120 39 2 0 4 -26 6 -57 10 -183
108 -359 255 -454 32 -21 63 -39 70 -42 28 -9 -154 -207 -253 -274 -70 -47
-202 -111 -299 -143 -242 -81 -588 -95 -849 -35 -221 52 -428 161 -564 299
-63 63 -125 143 -117 150 2 1 30 17 61 35 76 43 166 134 206 209 38 72 72 195
72 264 0 26 2 48 4 48 2 0 52 -16 110 -36z m-1426 -518 c40 -14 82 -26 93 -26
10 0 19 -4 19 -10 0 -5 -8 -10 -17 -10 -30 0 -233 -87 -318 -136 -44 -26 -103
-64 -132 -85 -29 -22 -54 -39 -57 -39 -2 0 3 21 11 48 8 26 16 94 18 152 l4
105 108 36 108 36 45 -22 c25 -12 78 -34 118 -49z m4320 32 l103 -33 -7 -50
c-5 -47 14 -202 32 -251 7 -17 5 -17 -17 2 -75 67 -330 203 -450 241 -32 10
-59 21 -59 24 0 4 16 10 35 13 33 7 192 67 224 86 9 5 21 7 26 5 6 -2 56 -19
113 -37z m-3405 -375 c248 -239 569 -372 977 -403 481 -36 942 116 1237 409
66 66 165 192 176 224 7 22 543 -152 716 -234 374 -176 627 -472 755 -879 97
-312 146 -693 172 -1332 l6 -167 -30 -31 -30 -30 -340 0 -340 0 -6 198 c-15
476 -37 769 -77 1027 -26 166 -34 190 -73 220 -59 45 -149 27 -182 -37 -18
-36 -19 -34 20 -313 33 -235 55 -530 63 -843 l6 -252 -1946 0 -1947 0 0 48 c1
92 20 509 30 647 14 184 35 369 61 533 23 150 20 173 -33 217 -22 19 -41 25
-75 25 -39 0 -50 -5 -83 -37 -36 -37 -37 -41 -58 -178 -49 -315 -70 -574 -79
-972 l-6 -283 -341 0 c-372 0 -375 1 -397 57 -17 45 14 590 51 898 83 687 256
1065 609 1331 162 122 338 200 726 324 l240 77 53 -77 c29 -43 94 -118 145
-167z"/>
<path d="M4013 6789 c-17 -5 -43 -23 -57 -40 -45 -53 -31 -155 26 -190 13 -8
91 -46 173 -84 83 -38 152 -71 154 -72 3 -2 -9 -18 -27 -36 -148 -154 -51
-417 156 -417 121 0 225 130 208 261 l-7 48 63 -30 c64 -30 104 -32 151 -7 30
16 57 70 57 115 0 80 -18 92 -438 281 -207 94 -388 173 -402 176 -14 2 -39 0
-57 -5z"/>
<path d="M6270 6776 c-30 -12 -203 -91 -385 -175 -367 -169 -395 -187 -395
-261 0 -117 100 -166 219 -107 l53 26 -7 -35 c-9 -52 12 -137 46 -184 36 -49
115 -90 174 -90 59 0 138 41 173 89 37 50 57 128 48 184 -8 51 -52 132 -85
158 -14 11 -21 23 -15 28 5 4 74 38 154 75 177 81 210 111 210 185 0 61 -33
105 -88 121 -46 12 -37 14 -102 -14z"/>
<path d="M5073 5511 c-200 -32 -419 -153 -544 -302 -57 -68 -106 -139 -119
-175 -23 -60 22 -136 91 -154 58 -16 102 9 162 90 95 128 194 206 323 257 91
34 265 44 364 19 149 -37 279 -129 389 -275 46 -62 64 -78 98 -89 37 -12 46
-11 86 6 48 21 77 67 77 120 0 62 -143 238 -269 331 -86 64 -214 125 -316 151
-89 23 -262 33 -342 21z"/>
</g>
</svg>
